<?xml version="1.0" encoding="UTF-8" standalone="no"?>
<!-- (c) ammap.com | SVG map of Colombia -->

<svg
   xmlns:amcharts="http://amcharts.com/ammap"
   xmlns:dc="http://purl.org/dc/elements/1.1/"
   xmlns:cc="http://creativecommons.org/ns#"
   xmlns:rdf="http://www.w3.org/1999/02/22-rdf-syntax-ns#"
   xmlns:svg="http://www.w3.org/2000/svg"
   xmlns="http://www.w3.org/2000/svg"
   xmlns:sodipodi="http://sodipodi.sourceforge.net/DTD/sodipodi-0.dtd"
   xmlns:inkscape="http://www.inkscape.org/namespaces/inkscape"
   version="1.1"
   id="svg2"
   inkscape:version="0.91 r13725"
   sodipodi:docname="colombiaHigh.svg">
  <metadata
     id="metadata45">
    <rdf:RDF>
      <cc:Work
         rdf:about="">
        <dc:format>image/svg+xml</dc:format>
        <dc:type
           rdf:resource="http://purl.org/dc/dcmitype/StillImage" />
      </cc:Work>
    </rdf:RDF>
  </metadata>
  <sodipodi:namedview
     pagecolor="#ffffff"
     bordercolor="#666666"
     borderopacity="1"
     objecttolerance="10"
     gridtolerance="10"
     guidetolerance="10"
     inkscape:pageopacity="0"
     inkscape:pageshadow="2"
     inkscape:window-width="1600"
     inkscape:window-height="838"
     id="namedview43"
     showgrid="false"
     inkscape:zoom="1"
     inkscape:cx="681.83791"
     inkscape:cy="-169.66609"
     inkscape:window-x="-8"
     inkscape:window-y="-8"
     inkscape:window-maximized="1"
     inkscape:current-layer="svg2" />
  <defs
     id="defs4">
    <style
       type="text/css"
       id="style6">
			.land
			{
				fill: #CCCCCC;
				fill-opacity: 1;
				stroke:white;
				stroke-opacity: 1;
				stroke-width:0.5;
			}
		</style>
    <amcharts:ammap
       projection="mercator"
       leftLongitude="-81.721283"
       topLatitude="12.590653"
       rightLongitude="-66.868938"
       bottomLatitude="-4.237159" />
    <!-- All areas are listed in the line below. You can use this list in your script. -->
    <!--{id:"CO-AMA"},{id:"CO-ANT"},{id:"CO-ARA"},{id:"CO-ATL"},{id:"CO-BOL"},{id:"CO-BOY"},{id:"CO-CAL"},{id:"CO-CES"},{id:"CO-CHO"},{id:"CO-CAL"},{id:"CO-COR"},{id:"CO-CAQ"},{id:"CO-CAS"},{id:"CO-CUN"},{id:"CO-DC"},{id:"CO-GUA"},{id:"CO-GUV"},{id:"CO-HUI"},{id:"CO-LAG"},{id:"CO-MAG"},{id:"CO-MET"},{id:"CO-NAR"},{id:"CO-NSA"},{id:"CO-PUT"},{id:"CO-QUI"},{id:"CO-RIS"},{id:"CO-SAN"},{id:"CO-SUC"},{id:"CO-SAP"},{id:"CO-TOL"},{id:"CO-VAC"},{id:"CO-VID"},{id:"CO-VAU"}-->
  </defs>
  <path
     style="fill:#cccccc;fill-opacity:1;stroke:#ffffff;stroke-width:0.5;stroke-opacity:1"
     inkscape:connector-curvature="0"
     d="M 0.29,4.2 0,3.94 0,1.89 0.26,1.06 0.64,0.42 1.15,0 1.6,0.19 1.2,2.44 0.73,3.48 0.41,4.17 Z"
     class="land"
     title="San Andrés, Providencia y Santa Catalina"
     id="CO-SAP" />
  <g
     id="g4229">
    <path
       id="CO-AMA"
       title="Amazonas"
       class="land"
       d="m 302.91,543.31 1.41,-0.35 0.82,-0.27 5.34,-1.93 6.54,-2.22 5.06,-1.68 2.87,-0.86 3.41,0.2 2.23,-0.04 0.93,0.48 2.8,1.76 1.81,2.72 3.76,0.43 4.06,-0.11 2.62,-0.02 2.8,2.12 0.76,0.56 1.48,0.68 4.61,-0.38 0.66,-1.18 0.38,-0.89 1.28,-1.33 1.5,0 0.93,0.55 1.02,1.24 0.51,1.04 1.14,0.31 1.1,0.05 1.26,-0.05 1.02,-0.3 1.22,-1.24 2.05,-0.29 1.23,1.48 1.54,1.76 3.67,2.2 1.22,0.07 0.76,-1.46 3.4,-3.61 1.68,-0.13 0.48,1.4 3.07,1.49 0.9,0 1.01,-0.48 1.3,-1.09 -0.13,-2.32 0.29,-0.84 0.74,-1.99 0.69,-1.4 0.49,-0.76 0.84,-0.93 5.51,-5.31 1.08,-0.51 1.13,-0.02 1.12,0.23 2.4,0.65 1.8,0.11 1.53,-1.11 0.8,-1.2 0.56,-0.97 0.38,-0.79 0.52,-1.01 0.46,-0.84 0.74,-0.97 3.44,-2.82 4.09,-4.34 1.61,-1.9 0.5,-1.18 -0.22,-1.64 0.76,-0.62 3.04,0.14 1.89,0.93 0.98,0.75 8.52,5.18 4.11,1.3 1.58,-0.65 2.08,2.2 1.04,1.96 1.69,7.58 1.62,2.64 3.01,-1.22 0.7,-1.33 10.41,3.36 1.61,1.66 0.6,0.94 1.32,1.24 2.75,0.9 1.46,-0.33 -0.72,-1.21 2.46,-1.85 2.02,1.06 0.71,0.92 -1.5,5.54 0.06,4.82 -1.33,2.12 0.06,1.57 1.04,0.9 0.95,0.98 0.34,1.76 -1.08,0.84 -1.42,0.83 -0.27,0.89 0.32,0.98 0.51,0.86 5.07,4.02 1.15,0.09 0.84,-0.36 0.69,-0.77 0.32,-0.95 -0.6,-0.61 -1.19,-0.3 -0.59,-0.66 0.06,-0.84 0.65,-0.88 1.36,-0.88 5.83,-0.39 0.2,1.52 -1.12,3.18 0.29,0.84 1.36,0.23 0.82,-0.3 2.85,-1.32 4.23,-1.02 3.25,2.81 -0.06,0.91 0.78,3.54 6.72,-0.9 -0.14,-3.16 1.01,-2.19 0.44,0.95 0.8,3.72 0.9,4.68 0.47,3.76 -0.51,1.78 -2.54,5.92 -2.88,15.9 -2.95,16.26 -0.56,3.08 -0.75,3.93 -0.39,2.14 -6.5,36.27 -3.66,20.56 -2.53,11.98 -0.56,1.01 0.01,-1.13 -1.32,-1.37 -1.34,-0.91 -0.81,-0.54 -3.39,-2.8 -0.54,-0.89 -0.33,-0.78 -0.34,-1.06 -0.42,-1.27 -0.79,-1.54 -2.17,-2.72 -3.65,-2.95 -0.77,-0.38 -0.85,-0.09 -1.82,0.6 -0.72,0.56 -2.29,1.39 -0.88,0.38 -1.12,0 -3.28,-1.22 -4.8,-2.04 2.14,-3.36 1.84,-2.82 2.54,-3.92 4.89,-7.55 1.44,-2.24 14.21,-22.11 -1.28,-2.34 -0.91,0.13 -3.05,-2.36 -0.59,-1.42 -0.41,-1.6 -3.15,-2.83 -1.66,-0.36 -0.83,0.23 -0.91,0.56 -7.69,-0.75 -0.74,-0.39 -2.77,-3.39 -0.33,-1.76 -8.3,-5.44 -4.84,2.17 -5.14,1.37 -3.58,2 -7.16,-0.56 -2.08,-2.69 -4.45,-1.92 -2.33,0.09 -4.02,-0.48 -0.41,-1.18 0.04,-1.21 -0.41,-0.77 -1.18,0.46 -3.57,2.94 -2.59,3.67 -0.76,2.35 -1.72,0.05 -2.09,-0.39 -3.62,1.57 -6.49,3.73 -2.97,-0.3 -1.16,-0.35 -5.07,-1.7 -5.75,-1.4 -3.84,1.34 -5.41,2.05 -2.77,0.67 -0.85,-2.16 -1.32,-2.2 -1.67,0.07 -1.15,0.36 -2.92,-1.6 -1.27,-1 -0.44,-0.75 -0.68,-3.38 1.26,-0.58 0.97,-1.3 0.8,-2.24 -1.32,-9.09 -1.75,-3.05 -2.65,-1.75 -1.72,1.6 -2.39,1.15 -4.93,-2.34 -3.05,-2.03 -0.7,-0.76 0.84,-3.85 0.42,-0.73 1.23,-1.08 -1.23,-2.36 -1.78,-2.42 -0.94,-1.04 -0.19,-1.29 -0.34,-2.51 -4.03,-3.72 -2.45,-0.22 -1.62,0.44 -3.66,-1.01 -1.11,-2.32 -8.65,-5.56 -5.67,-1.55 -1.04,-0.9 -0.6,-1.07 -1.13,-2.31 0.76,-1.29 0.68,-1.85 -1.75,-1.8 -1.07,-1.15 -0.94,-3.08 -0.79,-3 z"
       inkscape:connector-curvature="0"
       style="fill:#cccccc;fill-opacity:1;stroke:#ffffff;stroke-width:0.5;stroke-opacity:1" />
    <path
       id="CO-ANT"
       title="Antioquia"
       class="land"
       d="m 290.9,283.09 -1.19,-0.2 -6.32,1.84 -5.31,0.6 -1.95,0.46 -1.04,1.36 -0.71,1.01 -3.99,2.79 -1.27,-0.58 -1.38,-1.06 -1.35,-1.25 -0.84,-0.35 -4.43,-0.34 -6.45,-1.91 -1.58,-0.51 -1.36,-0.2 -0.06,1.18 0.61,3.82 0.17,3.01 -0.7,0.52 -2.61,-0.26 -1.85,-0.18 -2.31,0.29 -1.12,0.29 -3.06,1.62 -0.84,0.11 -3.51,0.08 -0.59,-0.34 -1.56,-1.45 -0.87,-0.98 -1.93,-2.48 -0.36,-1.02 0.74,-1.64 0.11,-1.26 -0.24,-1.18 -0.63,-1.54 -0.62,-1.14 -0.43,-1.08 -0.18,-0.99 0.18,-0.98 0.63,-1.2 0.21,-3.15 -2.37,-0.47 -0.84,-0.28 -0.74,-0.66 -0.61,-1.65 -0.15,-1.25 -0.05,-1.32 -0.21,-2.85 -0.6,-0.7 -1.88,-1.01 -0.96,-0.14 -9.57,1.69 -1.19,0.37 -0.9,0.11 -4.32,-0.19 -3.39,-4.76 -0.29,-0.96 0.01,-1.09 -0.01,-3.37 -0.28,-1.55 -3.67,-7.77 -0.88,-0.82 -2.1,-1.34 -0.39,-5.42 2.27,-0.76 1.57,0.11 1.48,0.53 1.93,-1.61 0.08,-1.51 -0.51,-1.41 -0.75,-1.72 0.67,-1.01 5.86,-0.22 2.94,0.6 1.4,0.7 0.83,0.23 0.77,-0.42 1.17,-7.02 -0.41,-1.66 -0.56,-1.36 -0.6,-0.91 -2.07,-2.81 -1.55,-0.43 -0.9,-0.46 -2.5,-2 -7.58,-7.72 -0.88,-0.92 -0.81,-0.87 -2.48,-2.81 -1.29,-1.6 -3.06,-0.68 -0.57,-3.8 1.5,-0.45 0.95,-0.59 0.89,-0.96 0.6,-1.53 0.23,-1.46 0.44,-2.18 0.53,-0.75 2.35,-1.66 1.1,-0.34 1.39,-0.41 1.23,-1.93 0.19,0.17 0.06,1.77 -0.17,2.48 -1.39,-0.34 -0.93,-0.5 -0.98,0.63 -0.44,1.9 0.15,2.05 2.14,1.1 2.27,0.18 2.43,-0.59 0.55,-0.68 0.52,-4.28 -0.29,-2.12 -0.59,-4.42 -0.5,-5.93 -0.35,-2.92 -1.98,-2.94 -2.26,-1.62 -2.12,-0.65 -0.01,-1.29 1.8,-2.23 2.75,-0.49 5.94,-1.77 9.95,-8.28 0.24,-1.24 0.7,0.55 0.42,0.73 0.29,0.81 0.08,0.84 0.02,1.5 0.12,1.09 0.22,1.28 0.56,2.02 0.58,1.07 0.59,0.76 0.79,0.74 0.93,0.58 1.2,0.62 1.07,0.42 1.47,0.74 0.61,0.73 0.19,1.05 -0.03,1.77 -0.07,1.35 -0.2,1.37 -0.34,1.08 -0.63,1.08 -0.75,0.87 -1.19,1.18 -0.81,0.57 -1.96,2 -1.03,1.19 -0.99,2.06 -0.47,1.42 -0.31,1.42 -0.36,2.16 -0.14,1.13 -0.09,2.08 -0.47,1.61 -1.57,1.56 -0.98,0.96 -0.78,1.33 -0.38,4.27 -0.02,1.46 0.06,0.93 0.33,2.16 0.34,1.49 0.34,1.15 0.61,1.12 1.56,2.39 3.88,5.04 1.41,0.23 1.23,-0.05 0.91,-0.1 2.82,-0.11 8.05,-0.05 2.01,0.03 2.99,0.15 1.28,-0.32 6.91,-8.57 0.53,-3.06 1.2,-2.04 0.51,-0.73 1.05,-1.02 1.28,-0.23 0.9,0.48 1.29,1.14 0.87,0.28 0.69,-0.62 0.43,-1.96 0.83,-2.31 1.01,-0.35 1.36,-0.45 1.1,-0.52 0.93,-1.28 0.29,-0.82 0.48,-1.17 4.57,-4.35 1.14,-0.3 2.45,0.1 2.17,0.17 2.34,0 1.13,-0.05 1.02,-0.29 0.85,-0.41 0.82,-0.62 0.64,-0.76 0.48,-0.73 1.29,-1.85 1.26,-1.35 2.08,1.77 2.23,1.88 0.8,0.59 1.7,1.12 2.16,1.29 1.11,0.7 0.81,0.62 0.96,1.05 0.37,0.78 0.21,1.01 0.02,0.89 -0.02,3.09 0.19,1.99 0.88,1.08 -0.96,4.56 -2.76,6.89 0,0.97 0.42,0.75 0.61,0.73 3.33,3.42 2.18,-1.69 0.51,-0.81 0.95,-1.95 0.88,-1.15 0.81,-0.53 0.78,0.33 0.51,1.04 0.11,1.44 -0.48,0.8 -0.93,1.1 -0.79,1.49 -0.21,1 -0.27,3.95 0.13,1.21 2.39,7.11 1.46,0.22 1.21,-0.02 1.57,-0.39 4.36,-3.77 1.26,-1.15 1.93,-1.91 2.32,-2.33 2.24,-2.25 -0.22,0.75 -0.21,1.22 0.01,0.85 0.49,4.36 0.53,1.04 0.77,0.93 0.46,1.64 -0.07,1.05 -1.86,1.7 -1.87,0.84 -1.4,0.75 -2.12,2.27 -1.08,1.8 -0.78,1.36 -0.64,0.63 -1.27,1.01 -4.87,3.79 -2.71,1.26 -1.3,0.04 -1.49,1.85 -0.39,1.41 0.33,3.53 1.05,1.73 -0.35,0.86 -3.89,4.33 -0.97,0.72 -1.64,0.7 -0.5,0.57 -0.61,0.82 -1.12,3.44 0,1.72 0.17,5.11 -0.7,0.71 -1.41,5.04 z"
       inkscape:connector-curvature="0"
       style="fill:#cccccc;fill-opacity:1;stroke:#ffffff;stroke-width:0.5;stroke-opacity:1" />
    <path
       id="CO-ARA"
       title="Arauca"
       class="land"
       d="m 489.48,272.13 -2.52,-1.54 -6.85,-5.51 -2.48,-2.24 -3.24,-1.43 -7.33,-0.14 -2.12,0.67 -2.18,1.24 -0.78,0.35 -1.1,0.45 -6.04,0.4 -2.51,0 -5.69,-0.18 -2.78,-0.16 -1.59,-0.17 -8.34,-1.82 -1.16,-0.46 -2.29,0.59 -1.33,0.54 -1.07,0.63 -6.81,1.95 -0.83,0.07 -3.11,-0.01 -1.18,-0.93 -5.51,0.3 -8.92,1.87 -1.55,1.09 -0.75,0.66 -2.99,1.8 -0.86,-0.03 -1.67,-0.35 -3.5,-1.58 -3.34,-4.4 -0.37,-1.46 -0.08,-1 0.22,-1.79 3.45,-3.89 4.11,-2.1 1.02,-0.88 0.34,-1.25 0.09,-1.14 2.35,-5.44 1.89,-3.33 0.29,-0.87 0.13,-0.81 0.21,-1.38 0.1,-1.35 0.33,-1.22 0.58,-1.05 1.89,-2.85 2.06,0.95 1.82,-0.02 1.16,-0.66 4.23,-1.78 2.33,-0.59 1.81,0.11 2,0.53 2.67,0.67 1,0.23 5.42,0.04 2.88,1.44 3.35,0.99 6.44,-0.87 0.81,-0.34 1.42,-0.64 2.58,-1.65 0.9,-1.11 1.19,-0.3 1.57,-0.21 4.11,-0.44 6.89,1.64 4.57,1.95 2.29,1.16 1.04,0.79 0.7,0.47 0.83,0.31 1.2,0.27 1.33,-0.3 0.78,-0.63 0.89,-0.54 2.61,-0.35 1.62,0.28 16.26,20.16 12.17,15.16 -1.63,1.32 -1.13,0.57 -2.18,0.76 -1.64,0.13 -2.41,0.03 -2.36,-0.26 -2.56,-0.26 -1.25,0.22 -1.38,0.59 z"
       inkscape:connector-curvature="0"
       style="fill:#cccccc;fill-opacity:1;stroke:#ffffff;stroke-width:0.5;stroke-opacity:1" />
    <path
       id="CO-ATL"
       title="Atlántico"
       class="land"
       d="m 266.9,74.85 0.88,-0.22 7.55,-4.18 0.32,-1.25 0.36,-1.28 4.2,-4.27 2.19,-2.12 0.29,-0.24 -0.03,0.24 0.81,2.01 1.32,0.84 0.97,0.92 0.53,0.89 2.21,4.07 0.11,5.72 -0.07,2.72 -0.22,4.29 -0.38,1.8 -1.9,1.26 -0.89,0.84 -0.74,0.95 -2.24,5.11 -1.73,4.21 -3.15,-2.67 -4.91,-2.97 -5.06,-3.66 -0.34,-1.77 0.31,-1.35 0.23,-1.05 0.08,-1.21 -0.24,-1.36 -0.78,-2.35 1.04,-0.95 -0.37,-1.37 -0.63,0.66 0.08,-1.44 z"
       inkscape:connector-curvature="0"
       style="fill:#cccccc;fill-opacity:1;stroke:#ffffff;stroke-width:0.5;stroke-opacity:1" />
    <path
       id="CO-BOL"
       title="Bolívar"
       class="land"
       d="m 326.93,184.66 -1.1,0.66 -1.57,1.44 -0.63,1.51 -0.21,0.93 0.01,1.39 0.03,1.26 1.21,4.04 0.74,1.55 0.64,3.23 -0.78,6.67 -1.71,2.71 -1.7,3.9 -0.74,6.38 -2.24,2.25 -2.32,2.33 -1.92,1.91 -1.26,1.15 -4.37,3.78 -1.57,0.39 -1.21,0.02 -1.47,-0.22 -2.38,-7.11 -0.14,-1.22 0.27,-3.95 0.21,-0.99 0.78,-1.5 0.93,-1.1 0.49,-0.8 -0.11,-1.44 -0.51,-1.04 -0.78,-0.32 -0.81,0.53 -0.89,1.15 -0.95,1.95 -0.5,0.8 -2.18,1.69 -3.33,-3.41 -0.62,-0.73 -0.41,-0.75 -0.01,-0.97 2.77,-6.88 0.96,-4.56 -0.88,-1.08 -0.19,-1.99 0.02,-3.09 -0.02,-0.9 -0.21,-1.01 -0.38,-0.77 -0.95,-1.05 -0.81,-0.62 -1.11,-0.7 -2.16,-1.29 -1.69,-1.13 -0.8,-0.59 -2.23,-1.88 -2.08,-1.77 1.8,-0.85 0.65,-0.74 0.36,-1.46 0.35,-0.28 1.16,-0.4 1.53,-0.28 1.99,-0.26 0.92,-1.1 1.68,-3.39 1.11,-3.01 -0.59,-0.98 -0.61,-1.9 -0.37,-1.6 0.01,-7.48 1.53,-1.33 -2.21,-4.96 -1.33,-2.11 -1.19,-1.09 -2.37,-1.66 -1.08,-0.61 -0.79,-0.33 -0.85,-0.31 -2.42,-1.53 -1.7,-2.08 -1.39,-2.76 -0.68,-1.6 -0.17,-1.16 0.11,-0.98 0.33,-2.24 -0.05,-1.14 -0.16,-0.95 -0.66,-0.97 -1.02,-1.23 -0.76,-0.84 -10.63,-8.77 -3.15,-2.26 0.08,-0.87 -0.14,-2.98 -0.38,-1.08 -1.82,-0.79 -3.78,-4.67 -2.01,-4.63 -1.73,0.42 -0.7,0.32 0.45,-1.91 1.55,-1.99 0.1,-2.27 -0.63,-7.53 2.55,-1.2 -0.06,-1.85 -0.72,-2.46 1.15,-1.78 2.77,-2.74 4.98,-2.74 1.1,0.13 0.39,0.62 0.79,2.35 0.23,1.37 -0.07,1.2 -0.23,1.05 -0.31,1.35 0.34,1.76 5.06,3.66 4.91,2.97 3.15,2.67 -1.37,4.52 0.4,1.3 1.92,0.91 1.52,0.42 2.2,3.09 -0.29,1.61 -1.31,0.78 -1.23,0.55 -0.39,1.09 0.13,2.57 0.11,0.9 1.93,6.36 0.4,0.74 1.02,4.38 -0.46,2.85 -0.06,1.96 2.45,1.08 0.87,-0.1 0.91,-0.13 2.6,1.77 2.81,3.03 4.13,1.7 1.38,-0.02 3.8,1.7 1.76,1.1 3.11,2.79 1.06,1.71 2.25,2.24 5.8,1.9 3.31,0.67 2.1,0.03 -0.26,2.81 0.68,1.44 1.05,0.96 0.58,5.21 -0.25,3.29 1.18,2.39 0.53,0.86 1.03,3.54 0.45,4.05 -0.23,4.58 -1.12,4.87 z m -60.31,-107.55 -0.72,-0.29 0.17,-1.92 0.83,-0.06 -0.2,0.81 -0.08,1.46 z"
       inkscape:connector-curvature="0"
       style="fill:#cccccc;fill-opacity:1;stroke:#ffffff;stroke-width:0.5;stroke-opacity:1" />
    <path
       id="CO-BOY"
       title="Boyacá"
       class="land"
       d="m 379.5,236.98 2.52,0 2.74,-0.09 0.98,-0.32 1.21,-1.07 0.59,-1.12 0.66,-1.37 4.14,-2.36 0.85,-0.31 1.07,0.1 1.37,0.37 1.15,0.03 0.8,-0.37 0.8,-0.65 2.53,1.89 2.7,0.27 -1.89,2.85 -0.58,1.05 -0.33,1.22 -0.1,1.35 -0.21,1.38 -0.13,0.81 -0.29,0.87 -1.89,3.33 -2.35,5.44 -0.09,1.14 -0.34,1.25 -1.02,0.88 -4.11,2.1 -3.45,3.89 -0.33,0.23 -1.22,1.2 -0.63,1.04 -0.3,1.06 -0.1,1.16 -0.24,5.2 2.07,2.23 -1.16,4.91 -0.57,0.62 -0.68,2.81 4.47,1.92 1.94,3.31 0.05,0.96 -1.82,4.44 -3.31,1.37 -0.77,-0.47 -0.85,0.33 -0.63,0.6 -0.77,1.08 -0.75,1.12 -1.11,1.58 -0.75,0.91 -5.38,3.89 -4.02,0.55 -1.26,-1.42 -2.07,-1.52 -5.2,6.47 -1.12,3.14 0.41,0.83 2.09,1.9 0.44,0.93 -0.14,0.81 -1.17,1.31 -1.25,0.71 -1.4,0.31 -1.06,0.88 -0.72,1.19 -1.34,4.47 -0.25,1.04 0.13,0.83 1.31,2.2 -1.74,2.92 -1.79,0.23 -2.08,-0.35 -0.93,-0.51 -0.57,-0.78 -1.32,-1.68 -2.56,-1.8 -0.97,-0.47 -0.85,-0.29 -1.25,-0.48 -0.99,-0.42 -1.23,-0.77 -2.41,-1.6 -1.38,-1.32 -0.31,-1.18 0.71,-2.72 0.65,-1.04 1.5,-1.6 -0.71,-4.07 -0.8,-1.62 -0.78,-1.41 -1.79,-5.69 -2.85,-3.4 -2.91,-0.75 -3.21,-3.17 -1.71,0.38 -1.99,1.4 -0.56,1.49 -0.07,1.2 -1.8,1.9 -0.85,0.81 -0.77,0.38 -1.42,0.56 -0.97,-0.07 -5.35,-3.99 -2.76,-0.96 -3.49,-4.45 -0.42,-1.53 1.16,-1.33 0.78,-1.04 -0.68,-3.94 -1.08,-1.24 -1.66,1.26 -2.33,1.11 -1.57,-0.26 -1.83,-0.55 -5.02,1.06 -0.74,0.61 -0.02,-0.59 -0.75,-0.82 0.57,-2.94 1.41,-5.04 0.7,-0.71 -0.17,-5.11 0,-1.72 1.12,-3.44 0.61,-0.82 0.5,-0.57 1.39,1.63 2.17,3.51 1.59,2.38 1.42,1.3 1.17,0.34 0.78,-0.34 0.75,-0.41 1.08,-0.33 1.05,0.38 1.9,4.05 3.72,3.45 4.47,2.5 0.69,0.67 0.77,2.03 0.81,0.67 4.91,-1.21 5.41,-0.62 1.31,1.04 1.25,0.83 1,-0.67 0.69,-2.38 0.17,-0.86 0.79,-4.74 2.44,-5.91 1.27,-1.71 4.82,2.54 0.79,0.74 0.4,0.95 0.08,1.12 -0.1,0.9 -0.31,1.12 -1.1,2.07 -0.16,1.02 0.27,1.69 0.62,1.19 0.89,0.69 1.38,0.39 1.24,-0.14 2.3,-1.08 0.7,-0.75 0.17,-0.99 -0.51,-1.43 0.17,-1.22 0.66,-0.73 1.12,-0.55 0.88,-0.23 1.17,-0.13 1.12,0.22 2.59,0.41 3.01,-2.97 7.64,-9.45 1.1,-2.02 0.62,-1.72 -0.11,-2.08 -0.64,-1.19 -0.65,-1.03 -0.29,-1.44 0.03,-4.14 1.21,-0.19 2.37,1.47 0.53,1.18 0.76,2.73 2.16,-0.07 0.96,-0.21 0.79,-0.47 0.67,-0.8 0.47,-0.95 1.91,-5.51 0.25,-1.09 0.07,-1.21 -0.47,-6.04 -0.41,-1.28 z"
       inkscape:connector-curvature="0"
       style="fill:#cccccc;fill-opacity:1;stroke:#ffffff;stroke-width:0.5;stroke-opacity:1" />
    <path
       id="CO-CAU"
       title="Cauca"
       class="land"
       d="m 233.01,477.05 -0.45,1.04 -4.27,1.57 -1.15,0.25 -5.26,-0.04 -1.36,-0.19 -0.92,-0.3 -4.65,-1.93 -1.01,-1.11 -1.08,-2.24 0.51,-3.99 0.26,-0.81 0.41,-0.72 0.45,-0.89 -0.04,-0.83 -0.45,-1.15 -1.58,-3.09 -1.11,-1 -1.78,-0.16 -1.2,0.72 -1.1,1.8 -1.49,1.18 -1.19,0.29 -2.88,0.56 1.11,-1.97 0.89,-7.17 -0.11,-1.09 -0.86,-1.22 -7.79,-4.81 -0.83,0.09 -1.59,0.58 -0.91,0.2 -5.72,0.42 -1.57,0.01 -1.26,-0.16 0.4,-5.5 0.47,-0.72 1.23,-1.27 0.94,-0.47 0.94,-1.4 0.36,-1 -1.08,-0.98 -1.74,-1.54 -3.37,-4.12 -1.81,-3.05 -0.65,-0.92 -0.76,-0.4 -4.38,0.49 -1.92,0.05 -0.85,0 -2.21,-0.3 -1.18,-0.27 -0.85,-0.28 -1.09,-0.59 -1.69,-1.41 -0.51,-0.88 -1.58,-3.45 -1.42,-2.53 -2.39,-3.56 -1.11,-1.41 -0.51,-0.89 -0.42,-0.99 -0.11,-0.75 0.16,-1.65 1.39,1.91 0.26,1.08 1.49,0.74 3.03,-0.39 1.74,-1.68 -0.79,-1.32 -0.68,-4.66 2.76,-4.52 6.1,-7.53 0.76,-0.38 5.36,-8.24 0.38,-1.13 1.4,1.59 1.83,2.64 6.53,4.76 7.38,0.68 0.93,-1.32 2.41,1.15 2.44,2.73 5.5,-2.78 3.7,-2.22 1.85,-0.21 5.01,-2.22 0.94,-1.75 -0.1,-1.63 -0.69,-0.92 0.93,-1.6 1.95,-0.23 3.5,0.65 1.5,0.79 1.04,0.64 1.27,0.72 1.75,0.77 1.47,0.53 1.75,0.23 0.06,0.7 -0.19,1.37 -0.08,1 0.47,0.81 1.15,1.65 1.22,2.14 0.6,1.3 0.56,0.79 2.59,7.63 2.07,4.51 1.1,1.72 0.61,1.07 1.73,4.39 0.45,1.24 0.15,0.87 -3.09,0.8 -0.8,-0.22 -1.98,-1.64 -1.8,-1.16 -1.8,-0.58 -1.33,0.8 -0.84,1.16 -1.23,1.68 -0.77,0.68 -1.04,0.44 -1.21,0.17 -2.02,-0.55 -0.89,-0.08 -0.95,0.52 -4.02,4.54 -0.12,0.82 0.75,2.27 0.4,0.95 0.45,0.92 0.34,1.37 0,1.22 -0.62,0.54 -1.12,0.3 -1.64,-0.1 -1.68,-0.57 -1.23,-0.67 -1.37,-0.62 -1.34,-0.29 -1.79,0.4 -1.2,0.85 -0.04,2.09 0.58,6.4 0.81,0.94 0.93,0.04 1.38,-0.05 1.9,0.83 1.8,2.54 0.23,1.26 -0.15,1.51 -0.18,1.45 0.44,0.97 3.02,2.86 4.32,2.7 0.85,0.3 1.03,-0.05 1.99,-0.46 0.02,1.76 -1.97,4.16 -1.41,2.55 -1.39,1.36 -0.24,1.28 0.75,4.24 2.41,1.57 2.45,0.86 1.08,0.58 z"
       inkscape:connector-curvature="0"
       style="fill:#cccccc;fill-opacity:1;stroke:#ffffff;stroke-width:0.5;stroke-opacity:1" />
    <path
       id="CO-CES"
       title="Cesar"
       class="land"
       d="m 326.93,184.66 1.12,-4.88 0.23,-4.58 -0.45,-4.05 -1.03,-3.54 -0.52,-0.86 -1.18,-2.39 0.25,-3.29 -0.57,-5.21 -1.05,-0.97 -0.68,-1.43 0.26,-2.81 0.39,-0.67 1.41,-2.03 0.86,-1.54 -0.86,-1.37 -1.25,-1.31 -1.21,-1.07 -2.16,-4.68 -0.35,-1.23 -0.83,-1.39 -1.94,-3.03 -0.54,-0.8 -1.22,-1.09 -1.33,-0.54 -0.87,-0.78 2.61,-3.54 1.16,-0.64 4.39,0.24 5.47,-0.32 -2.25,-6.41 -4.91,-6.87 -4.74,-6.28 1,-3.83 0.38,-1.09 3.89,-6.68 2.24,-1.23 0.84,-0.28 5.51,-2.08 8.12,-3.9 -0.5,-1.44 -1.55,-1.53 -0.31,-1.13 -0.03,-0.84 0.11,-0.87 0.57,-0.95 0.83,-1.98 -1.48,-1.72 -1.58,-1.72 -0.56,-0.83 -0.19,-1.26 0.28,-0.92 0.77,-1.03 0.71,1.12 0.71,0.73 1.19,0.32 1.05,0.1 3.66,0.06 3.28,-0.02 1.92,-0.09 1.24,0.21 1.43,0.88 6.88,7.39 0.61,1.58 -0.46,2.82 -0.5,1.07 -1.3,0.57 -2.27,2.87 2.28,1.55 1.41,-0.08 1.44,-0.26 0.91,-0.25 1.62,-0.35 1.27,-0.11 2.11,0.2 0.48,0.12 -0.26,3.17 -0.99,9.74 -0.73,1.43 -0.86,3.33 -0.37,4.03 -0.75,5.68 -3.17,6.6 -1.48,1.99 -5.26,6.35 -4.89,7.58 -0.59,2.26 -0.25,0.39 -0.41,0.84 -0.51,1.29 -0.19,0.82 -0.98,6.7 -0.15,3.12 0.36,2.1 0.09,2.44 -0.59,1.51 -0.65,0.83 -1.38,1.34 -0.57,0.99 -0.31,1.05 -0.33,2.99 1.74,6.83 0.47,1.03 1.15,0.35 1.16,-0.96 0.05,-1.14 -0.06,-0.9 -0.15,-1.34 0.54,-0.75 1.44,-0.11 0.93,0.43 0.44,0.76 0.19,0.92 0.03,1.35 -0.11,1.93 -0.34,1.69 -1.17,0.72 -0.92,0.12 -0.64,0.73 0,0.98 0.6,1.47 1.55,2.15 0.95,2 0.43,1.17 0.97,3.93 -0.24,1.41 -2.51,5.23 -1,1.57 -1.08,1.01 -1.77,0.93 -1.16,0.29 -4.49,0.55 -0.2,-0.52 -1.06,-0.96 -1.75,-0.14 -2.53,-0.17 -0.54,-1.09 0.38,-1.49 0.96,-1.44 0.81,-1.31 0.31,-1.69 -1.41,-4.01 -0.81,-1.79 -1.61,-3.08 z"
       inkscape:connector-curvature="0"
       style="fill:#cccccc;fill-opacity:1;stroke:#ffffff;stroke-width:0.5;stroke-opacity:1" />
    <path
       id="CO-CHO"
       title="Chocó"
       class="land"
       d="m 179.42,163.15 0.81,0.53 1.92,3.47 0.64,2.56 1.8,2.15 0.86,0.56 0.85,0.31 1.47,0.39 1.21,0.99 0.64,0.99 1.53,2.49 4.66,3.63 0.54,2 0.29,1.28 2.51,1.55 2.03,-0.48 -1.24,1.92 -1.39,0.42 -1.1,0.33 -2.36,1.67 -0.53,0.75 -0.44,2.18 -0.23,1.46 -0.61,1.53 -0.88,0.96 -0.96,0.59 -1.49,0.45 0.56,3.8 3.07,0.68 1.28,1.6 2.48,2.81 0.81,0.87 0.88,0.92 7.58,7.72 2.49,2 0.9,0.46 1.55,0.42 2.07,2.81 0.6,0.92 0.56,1.35 0.41,1.67 -1.17,7.02 -0.76,0.42 -0.83,-0.23 -1.41,-0.71 -2.94,-0.6 -5.86,0.22 -0.67,1.01 0.75,1.71 0.52,1.42 -0.09,1.51 -1.93,1.61 -1.48,-0.53 -1.56,-0.11 -2.27,0.76 0.39,5.42 2.1,1.34 0.88,0.82 3.66,7.77 0.29,1.54 0.01,3.38 -0.02,1.09 0.29,0.96 3.39,4.76 4.33,0.19 0.9,-0.11 1.19,-0.37 9.57,-1.69 0.96,0.14 1.88,1.01 0.6,0.7 0.21,2.85 0.05,1.31 0.15,1.25 0.61,1.66 0.74,0.66 0.85,0.29 2.37,0.46 -0.22,3.16 -0.63,1.2 -0.17,0.97 0.17,0.99 0.43,1.08 0.62,1.14 0.63,1.54 0.24,1.18 -0.11,1.26 -0.74,1.64 0.35,1.02 1.94,2.47 0.87,0.98 1.56,1.45 -0.79,0.25 -0.98,0.37 -1.36,0.51 -6.78,3.22 -0.77,0.5 -3.46,3.6 0.26,1.25 3.91,8.54 0.46,0.74 0.73,0.76 0.81,0.52 0.92,0.48 0.68,0.25 -0.09,0.65 -0.26,1.02 -0.54,1.19 -0.78,0.56 -0.96,0.42 -0.85,0.5 -4.62,3.79 -0.58,0.67 -0.46,0.98 -3.01,6.85 -3.09,5.73 -0.52,0.77 -0.22,0.96 -0.08,0.9 0.17,1.82 0.25,1.15 0.25,0.81 0.34,0.79 1,1.19 1.85,1.83 -0.56,1.47 -4.61,3.69 -6.39,2.03 -1.11,0.15 -1.14,-0.07 -0.9,-0.36 -2.94,-1.82 -5.7,-1.9 -4.12,-3.52 -1.33,-0.55 -0.95,0.05 -1.58,0.39 -0.75,-0.6 -0.92,-1.73 0.24,-0.64 -1.96,-0.42 -1.96,0.07 -1.86,-2.99 1.47,-4.14 0.17,-0.27 0.34,-0.89 0.87,-3.1 -0.15,-4.17 -0.21,-2.93 -0.74,-3.98 -0.33,-1.07 -0.23,-1.03 -0.34,-3 -0.43,-5.84 0.04,-2.96 0.72,-1.97 0.24,-1.55 -0.5,-2.38 -1.52,-6.49 -3.46,-1.97 -2.12,-0.6 1.14,-2.69 3.46,-1.64 1.57,0.26 0.96,0.56 1.33,-0.5 3.15,-3.81 0.4,-2.02 -0.17,-1.24 -3.87,-8.2 -2.85,-3.83 -1.91,-2.06 -0.88,-1.14 -0.54,-1.11 0.54,-4.02 2.82,1.78 0.91,-1.72 1.21,-4.52 0.64,-7.25 -2.79,-5.08 -1.47,-0.88 -0.94,-0.1 -8.24,-6.69 0.56,-4.15 -0.14,-0.97 -1.01,-2.27 -4.64,-3.96 -3.97,-3.18 3.39,-10.31 1.31,0.13 1.12,-0.37 0.68,-0.89 0.46,-1.26 -0.35,-1.34 -1.04,-1.79 -0.19,-0.87 -0.01,-1.4 0.02,-1.07 0.61,-1.11 3.3,1.68 1.64,3.14 0.57,1.69 0.42,0.96 0.94,0.54 10.16,-7.25 0.04,-1.01 -1.65,-2.16 2.42,-4.48 0.67,-0.74 3.28,-1.34 0.71,-2.57 -0.7,-3.66 -1.17,-2.37 -1.22,-2.21 -0.93,-0.71 -2.18,-2.15 -0.56,-0.71 -0.23,-2.16 -0.02,-1.12 -0.26,-1.43 -1.27,-2.18 -0.96,-0.88 -1.63,0.03 -0.3,-2.05 0.97,-1.48 0.56,-0.4 2.75,-3.29 0.26,-1.18 z m -1.35,179.4 0.95,0.54 0.83,1.89 1.5,0.46 -0.55,0.5 -6.89,1.22 -1.99,0.55 0.41,-1.49 4.34,-4.07 0.42,-0.11 0.52,0.19 0.46,0.32 z"
       inkscape:connector-curvature="0"
       style="fill:#cccccc;fill-opacity:1;stroke:#ffffff;stroke-width:0.5;stroke-opacity:1" />
    <path
       id="CO-CAL"
       title="Caldas"
       class="land"
       d="m 260.52,322.44 -3.31,-2.86 -1.68,-1.04 -0.85,-0.05 -3.19,-0.17 -4.29,-1.56 -4.6,1.08 -1.46,0.01 -0.89,-0.73 -1.64,-4.43 0.6,-1.41 4.5,-4.18 4.08,-2.31 1.44,-1.67 0.97,-1.89 -3.47,-2.47 -2.81,0.64 -1.59,0.79 -1.09,0.35 -0.7,-0.9 0.26,-4.6 3.06,-1.62 1.12,-0.29 2.31,-0.29 1.85,0.18 2.61,0.26 0.7,-0.52 -0.17,-3.01 -0.61,-3.82 0.06,-1.18 1.36,0.2 1.58,0.51 6.45,1.91 4.43,0.34 0.84,0.35 1.35,1.25 1.38,1.06 1.27,0.58 3.99,-2.79 0.71,-1.01 1.04,-1.36 1.95,-0.46 5.31,-0.6 6.32,-1.84 1.19,0.2 0.75,0.82 0.02,0.59 -0.31,0.54 -0.72,8.91 0.29,1.84 -1.27,3.23 -0.58,1.16 -0.63,1.06 -1.11,1.57 -0.03,-0.03 -0.9,-0.32 -1.61,-0.41 -1.72,-0.11 -2.49,0 -0.93,0.19 -2.91,0.7 -1.1,0.59 -1.26,1 -0.98,1 -0.41,0.72 -0.51,1.19 -0.7,0.45 -3.71,0.38 -1.4,0 -1.33,0.2 -1.15,1.29 -0.29,0.84 -1.76,6.43 0.51,1.14 0.74,0.97 -0.02,0.91 -0.65,0.77 z"
       inkscape:connector-curvature="0"
       style="fill:#cccccc;fill-opacity:1;stroke:#ffffff;stroke-width:0.5;stroke-opacity:1" />
    <path
       id="CO-COR"
       title="Córdoba"
       class="land"
       d="m 284.07,183.4 -1.26,1.35 -1.29,1.85 -0.48,0.73 -0.64,0.76 -0.82,0.62 -0.85,0.41 -1.02,0.29 -1.13,0.05 -2.34,0 -2.17,-0.17 -2.45,-0.1 -1.14,0.3 -4.57,4.35 -0.48,1.17 -0.29,0.82 -0.93,1.28 -1.1,0.52 -1.36,0.45 -1.01,0.35 -0.83,2.31 -0.43,1.96 -0.69,0.62 -0.87,-0.28 -1.29,-1.14 -0.9,-0.48 -1.28,0.23 -1.05,1.02 -0.51,0.73 -1.2,2.04 -0.53,3.06 -6.91,8.57 -1.28,0.32 -2.99,-0.15 -2.01,-0.03 -8.05,0.05 -2.82,0.11 -0.91,0.1 -1.23,0.05 -1.41,-0.23 -3.88,-5.04 -1.56,-2.39 -0.61,-1.12 -0.34,-1.15 -0.34,-1.49 -0.33,-2.16 -0.06,-0.93 0.02,-1.46 0.38,-4.27 0.78,-1.33 0.98,-0.96 1.57,-1.56 0.47,-1.61 0.09,-2.08 0.14,-1.13 0.36,-2.16 0.31,-1.42 0.47,-1.42 0.99,-2.06 1.03,-1.19 1.96,-2 0.81,-0.57 1.19,-1.18 0.75,-0.87 0.63,-1.08 0.34,-1.08 0.2,-1.37 0.07,-1.35 0.03,-1.77 -0.19,-1.05 -0.61,-0.73 -1.47,-0.74 -1.07,-0.42 -1.2,-0.62 -0.93,-0.58 -0.79,-0.74 -0.59,-0.76 -0.58,-1.07 -0.56,-2.02 -0.22,-1.28 -0.12,-1.09 -0.02,-1.5 -0.08,-0.84 -0.29,-0.81 -0.42,-0.73 -0.7,-0.55 0.32,-0.01 0.82,-0.16 1.05,-0.23 2.31,-0.93 2.2,-2.35 3.44,-8.15 0.33,-1.82 2.56,-3.31 0.86,-0.84 0.75,-0.41 6.3,-3.18 4.23,-0.68 3.74,0.72 0.68,1.41 0.68,0.9 0.75,0.82 0.77,0.65 5.31,3.48 3.83,3.99 0.78,0.66 3.13,0.77 0.85,0.35 0.81,0.45 2.43,2.09 1.56,4.25 0.05,1.04 -0.54,2.53 -1.25,-0.5 -1.34,0.13 -1.77,0.25 -3.17,1.2 -0.06,1.16 2.4,6.25 1.18,7.04 1.2,0.35 1.64,-0.55 0.89,-0.13 1.01,0.59 0.16,2.23 0.24,1.71 3.1,-0.83 2.35,-1.62 0.81,-0.8 1.12,-1.22 5.83,2.44 2.98,2.66 0.18,1.58 0.28,1.55 0.93,1.25 -0.36,1.47 -0.65,0.74 z"
       inkscape:connector-curvature="0"
       style="fill:#cccccc;fill-opacity:1;stroke:#ffffff;stroke-width:0.5;stroke-opacity:1" />
    <path
       id="CO-CAQ"
       title="Caquetá"
       class="land"
       d="m 399.2,492.11 0.8,0.69 2.77,3.2 2.74,4.78 1.44,4.41 2.59,0.66 3,2.73 3.27,2.07 3.81,2.1 0.91,-0.25 0.39,-0.42 0.22,1.64 -0.5,1.18 -1.61,1.9 -4.09,4.34 -3.44,2.82 -0.74,0.97 -0.46,0.84 -0.52,1.01 -0.38,0.79 -0.56,0.97 -0.8,1.2 -1.53,1.11 -1.8,-0.11 -2.4,-0.65 -1.12,-0.23 -1.13,0.02 -1.08,0.51 -5.51,5.31 -0.84,0.93 -0.49,0.76 -0.69,1.4 -0.74,1.99 -0.29,0.84 0.13,2.32 -1.3,1.09 -1.01,0.48 -0.9,0 -3.07,-1.49 -0.48,-1.4 -1.68,0.13 -3.4,3.61 -0.76,1.46 -1.22,-0.07 -3.67,-2.2 -1.54,-1.76 -1.23,-1.48 -2.05,0.29 -1.22,1.24 -1.02,0.3 -1.26,0.05 -1.1,-0.05 -1.14,-0.31 -0.51,-1.04 -1.02,-1.24 -0.93,-0.55 -1.5,0 -1.28,1.33 -0.38,0.89 -0.66,1.18 -4.61,0.38 -1.48,-0.68 -0.76,-0.56 -2.8,-2.12 -2.62,0.02 -4.06,0.11 -3.76,-0.43 -1.81,-2.72 -2.8,-1.76 -0.93,-0.48 -2.23,0.04 -3.41,-0.2 -3.51,-0.85 -1.48,-0.52 -2.75,-1.49 -1.98,-1.97 -1.43,-1.5 -3.07,-0.85 -3.57,-2.03 -0.79,-1.09 -1.86,-1.44 -4.36,-1.33 -0.67,0.6 0.15,0.83 -0.79,0.73 -4.88,-0.91 -3.24,-1.94 -0.9,-3.22 0.9,-0.73 0.63,-0.67 -1.56,-4.51 -0.66,-1.05 -0.81,-0.61 -4.43,-0.63 -1.25,-0.29 -4.34,-1.82 -1.04,-4.75 0.55,-1.11 0.11,-0.82 -0.52,-1.08 -0.65,-0.63 -3.91,-1.81 -1.15,0.75 -1.25,0.71 -1.16,-0.26 -1.27,-2.62 -0.15,-1.26 0.38,-1.42 -1.63,-4.4 -1.17,-0.9 -1.65,-0.4 -1.17,0.36 -0.81,0.17 -2.21,0.15 -3.44,-0.92 -0.94,-0.95 -0.54,-1.32 -3.81,-2.14 -1.75,0.64 -2.83,0.42 -3.76,-1.36 -2.77,-3.05 -0.47,-0.84 0.14,-1.45 -0.99,-1.25 -4.85,-0.35 -0.58,0.23 -1.86,-2.24 -1.08,-0.58 -2.45,-0.86 -2.41,-1.57 -0.75,-4.24 0.24,-1.28 1.39,-1.36 1.41,-2.55 1.97,-4.16 -0.02,-1.76 0.54,-0.3 4.31,-0.34 1.65,-0.12 1.35,0 1.33,-0.95 7.85,-10.15 4.3,-5.05 3.46,-4.63 0.77,-2.36 6.57,-7.74 1.82,-1.56 1.71,-3.19 0.42,-2.29 0.35,-1.38 0.53,-0.81 1.33,-1.24 1.48,0.39 0.82,0.33 1.21,-0.31 4.37,-3.57 1.86,-2.32 -0.24,-1.31 -0.5,-0.89 -0.79,-1.2 -0.1,-1.54 0.53,-1.17 3.11,-3.89 0.25,-0.31 3.71,0.92 1.66,0.48 0.87,0.36 0.86,0.46 4.06,2.83 0.85,0.62 0.87,0.84 0.5,0.67 0.49,1.15 0.11,0.87 -0.09,0.97 -0.3,1.08 -0.52,1.1 -0.95,1.12 -0.58,0.58 -1.25,1.78 -0.34,1.14 0.62,8.03 0.2,1.04 0.85,2.44 0.7,1.59 0.31,1.07 0.4,2.8 -0.04,1.34 -0.02,1.69 0.06,0.84 0.27,1.17 1.42,2.54 1.35,1.68 1.25,1.46 1.24,0.84 1.91,0.78 1.76,0.37 1.28,0.25 0.99,0.12 1.06,0.09 1.3,0.21 2.52,0.62 2.63,2.59 1.01,1.61 5.07,3.66 1.31,0.24 2.04,-0.24 1.1,-0.19 1.91,-0.73 1.44,-0.46 3.09,-0.9 1.33,-0.19 1.1,0.08 1.36,0.48 -0.06,0.36 -0.06,1.51 0.37,2.15 0.78,1.26 3.2,3.95 1.75,1.48 1.48,1.68 1.48,3.15 0.26,1.21 0.06,1.34 0.67,1.21 0.79,0.84 0.82,0.79 1.43,1.01 1.08,0.69 1.25,0.85 3.67,3.11 0.77,1.31 3.16,1.33 1.49,0.11 0.98,-0.22 6.35,-4.77 0.51,-0.84 -0.47,-0.9 -0.16,-0.97 1.5,-2.22 1.88,-0.9 3.57,-0.68 2.7,0.68 0.87,1.41 3.44,2.26 0.84,0.24 1.57,-0.3 2.52,2.45 4.99,6.62 1.05,2.77 1.83,3.54 0.88,-0.27 0.92,-0.41 3.87,1.35 1.94,1.51 z"
       inkscape:connector-curvature="0"
       style="fill:#cccccc;fill-opacity:1;stroke:#ffffff;stroke-width:0.5;stroke-opacity:1" />
    <path
       id="CO-CAS"
       title="Casanare"
       class="land"
       d="m 357.37,325.67 -1.31,-2.2 -0.13,-0.83 0.25,-1.04 1.34,-4.47 0.72,-1.19 1.06,-0.88 1.4,-0.31 1.25,-0.71 1.17,-1.31 0.14,-0.81 -0.44,-0.93 -2.09,-1.9 -0.41,-0.83 1.12,-3.14 5.2,-6.47 2.07,1.52 1.26,1.42 4.02,-0.55 5.38,-3.89 0.75,-0.91 1.11,-1.58 0.75,-1.12 0.77,-1.08 0.63,-0.6 0.85,-0.33 0.77,0.47 3.31,-1.37 1.82,-4.44 -0.05,-0.96 -1.94,-3.31 -4.47,-1.92 0.68,-2.81 0.57,-0.62 1.16,-4.91 -2.07,-2.23 0.24,-5.2 0.1,-1.16 0.3,-1.06 0.63,-1.04 1.22,-1.2 0.33,-0.23 -0.22,1.79 0.08,1 0.37,1.46 3.34,4.4 3.5,1.58 1.67,0.35 0.86,0.03 2.99,-1.8 0.75,-0.66 1.55,-1.09 8.92,-1.87 5.51,-0.3 1.18,0.93 3.11,0.01 0.83,-0.07 6.81,-1.95 1.07,-0.63 1.33,-0.54 2.29,-0.59 1.16,0.46 8.34,1.82 1.59,0.17 2.78,0.16 5.69,0.18 2.51,0 6.04,-0.4 1.1,-0.45 0.78,-0.35 2.18,-1.24 2.12,-0.67 7.33,0.14 3.24,1.43 2.48,2.24 6.85,5.51 2.52,1.54 -0.5,0.35 -1.35,1.63 -0.62,0.94 -1.01,2.14 -0.56,1.74 -1.01,2.72 -4.26,5.6 -1.07,1.2 -2.93,1.87 -1.06,0.34 -2.48,0.6 -0.95,0.17 -2.03,-0.06 -1.11,0.13 -3.85,1.51 -7.47,4.44 -0.87,0.55 -1.15,0.76 -0.43,1.06 0,0.84 -0.08,0.85 -6.52,6 -1.18,0.7 -1.72,0.83 -4.5,7.6 -0.75,0.97 -0.91,0.77 -0.7,0.44 -0.4,0.44 -3.31,2.04 -1.53,0.87 -1.58,0.52 -1.15,0.1 -2.57,0.94 -0.98,0.42 -8.14,3.7 -2.77,2.05 -0.8,0.47 -1.2,0.49 -3.61,1.22 -4.36,2.78 -0.88,0.97 -3.56,2.78 -2.6,1.19 -1.19,-0.1 -0.9,-0.99 -0.86,-0.84 -1.27,-0.42 -3.75,0.44 -3.45,1.3 -1.17,1.54 -0.68,0.62 -1.5,0.91 -3.8,0.55 -4.27,0.47 -5.33,0.47 -0.81,-0.73 -7.1,-7.7 -2.02,-2.77 -0.46,-1.49 -0.43,-1.11 -1.24,-1.73 -1.37,-1.73 z"
       inkscape:connector-curvature="0"
       style="fill:#cccccc;fill-opacity:1;stroke:#ffffff;stroke-width:0.5;stroke-opacity:1" />
    <path
       id="CO-CUN"
       title="Cundinamarca"
       class="land"
       d="m 287.31,302.78 0.03,0.03 1.11,-1.57 0.63,-1.06 0.58,-1.16 1.27,-3.23 -0.29,-1.84 0.72,-8.91 0.31,-0.54 0.74,-0.61 5.02,-1.06 1.83,0.55 1.57,0.26 2.33,-1.11 1.66,-1.26 1.08,1.24 0.68,3.94 -0.78,1.04 -1.16,1.33 0.42,1.53 3.49,4.45 2.76,0.96 5.35,3.99 0.97,0.07 1.42,-0.56 0.77,-0.38 0.85,-0.81 1.8,-1.9 0.07,-1.2 0.56,-1.49 1.99,-1.4 1.71,-0.38 3.21,3.17 2.91,0.75 2.85,3.4 1.79,5.69 0.78,1.41 0.8,1.62 0.71,4.07 -1.5,1.6 -0.65,1.04 -0.71,2.72 0.31,1.18 1.38,1.32 2.41,1.6 1.23,0.77 0.99,0.42 1.25,0.48 0.85,0.29 0.97,0.47 2.56,1.8 1.32,1.68 0.57,0.78 0.93,0.51 2.08,0.35 1.79,-0.23 1.74,-2.92 0,0.82 -0.31,0.9 -0.72,3.86 -2.18,11.92 -3.28,1.71 -6.72,-1.69 -2.1,0.53 -1.03,0.68 -0.89,0.19 -2.06,-0.45 -0.92,-0.77 -0.82,-2.28 -0.2,-0.94 -0.23,-1.44 -0.52,-1.44 -0.8,-0.64 -1.13,-0.58 -5.22,-1.33 -1.3,0.99 -1.47,2.25 -0.6,1.5 0.73,0.97 1.21,0.3 1.77,3.71 0.17,0.92 0,2.06 -1.1,0.56 -0.93,-0.01 -1.73,0.06 -6.67,3.4 -0.78,0.61 -0.86,0.87 -0.89,0.7 -1.77,1.12 -0.98,0.35 -1.06,0.08 -0.07,-2.59 1.19,-4.83 0.87,-4.32 0.28,-4.09 0.23,-1.04 0.51,-1.2 0.37,-0.76 0.77,-1.22 1,-0.97 0.77,-0.93 0.76,-1.23 0.12,-6.87 -0.33,-1.97 -2.12,-1.12 -1.02,0.17 -4.33,7.49 -1.39,9.59 0.21,2.86 0.42,2.63 -0.2,1.5 -2.2,5.36 -1.05,0.39 -2.07,0.07 -2.32,3.26 0.11,2.81 -0.83,3.17 -0.36,0.76 -1.25,2.16 -1.3,1.8 -1.01,0.83 0.11,-0.22 0.45,-1.23 -0.14,-0.95 -1.63,-0.9 -0.6,-0.76 -0.05,-0.26 1.03,-2.57 0.11,-1.25 0.15,-4.73 1.37,-2.79 -0.04,-1.24 -0.42,-0.96 -1.36,-2.05 -0.98,-1.13 -1.15,-0.34 -1.46,0.49 -0.98,1.57 -1.17,0.53 -1.01,-0.11 -8.01,-3.09 -0.82,-0.65 0.67,-1.82 2.89,-5.47 0.72,-2.2 -0.51,-1.15 -0.27,-1.5 -0.17,-1.32 -0.42,-4.47 2.2,-4.78 1.81,-11.55 -0.58,-6.74 z"
       inkscape:connector-curvature="0"
       style="fill:#cccccc;fill-opacity:1;stroke:#ffffff;stroke-width:0.5;stroke-opacity:1" />
    <path
       id="CO-DC"
       title="Distrito Capital de Bogotá"
       class="land"
       d="m 297.74,366.87 1.01,-0.83 1.3,-1.8 1.25,-2.16 0.36,-0.76 0.83,-3.17 -0.11,-2.81 2.32,-3.26 2.07,-0.07 1.05,-0.39 2.2,-5.36 0.2,-1.5 -0.42,-2.63 -0.21,-2.86 1.39,-9.59 4.33,-7.49 1.02,-0.17 2.12,1.12 0.33,1.97 -0.12,6.87 -0.76,1.23 -0.77,0.93 -1,0.97 -0.77,1.22 -0.37,0.76 -0.51,1.2 -0.23,1.04 -0.28,4.09 -0.87,4.32 -1.19,4.83 0.07,2.59 -1.5,-0.07 -1.23,0.26 -1.04,0.78 -5.88,6.41 -0.75,1.3 -0.59,1.49 -0.86,1.9 -0.68,0.75 -0.83,0.17 -0.77,-0.42 z"
       inkscape:connector-curvature="0"
       style="fill:#cccccc;fill-opacity:1;stroke:#ffffff;stroke-width:0.5;stroke-opacity:1" />
    <path
       id="CO-GUA"
       title="Guainía"
       class="land"
       d="m 577.46,353.85 0.65,3.17 0.5,1.99 1.87,5.07 0.79,1.59 0.67,0.75 0.94,0.34 1.45,-0.17 1.24,-0.06 0.85,0.56 2.23,3.12 0.36,1.65 1.35,3.92 0.59,1.09 0.75,0.53 0.88,0.27 1.45,0.56 0.56,2.33 -2.21,3.37 -0.96,0.37 -2.71,2.09 -2.66,2.59 -6.45,6.06 -7.27,6.81 0.39,2.03 2.38,-0.22 5.41,0.95 1.18,0.66 0.67,1.19 2.24,3.45 2.05,1.09 6.61,7.35 1.8,1.44 0.97,0.41 1.58,0.65 1.12,0.84 0.75,2.3 -0.43,0.83 -0.94,0.87 -0.39,0.81 0.22,1.29 0.53,1.48 0.97,2.22 0.6,0.85 1.95,4.34 5.01,13.55 2.69,9.67 1.13,7.19 0.31,1.34 0.68,1.04 0.19,0.21 -0.61,-0.01 -6.08,1.58 -1.75,0.41 -0.37,-0.87 -0.15,-2.97 0,-0.82 0.31,-4.05 0.27,-1.2 0.42,-0.97 0.28,-3.35 -0.59,-4.11 -1.75,-4.69 -1.95,-3.43 -1.88,-2.34 -0.89,-0.66 -1.51,-2.25 -1.82,-3.52 -0.45,-1.24 -0.23,-1.04 -0.59,-1.01 -3.41,-1.22 -3.44,1.47 -2.47,1.63 -0.83,0.58 -3.31,3.26 -0.44,1.5 -0.42,0.71 -3.46,4.12 -1.67,1.42 -2.51,1.19 -1.74,0.41 -1.11,0.11 -1.07,-0.14 -0.95,-0.32 -0.8,-0.6 -1.04,-1.35 -1.24,-2.13 -0.4,-0.77 -0.55,-2.25 -0.67,-1.01 -0.79,-0.49 -2.08,-0.57 -0.91,0 -1.24,1.8 -0.43,0.98 -0.83,2.33 1,3.17 0.88,0.15 1.19,0.22 1.22,1.73 -27.85,-0.08 -11.3,-0.06 -5.65,-0.02 -5.46,0 -1.14,-0.67 -2.43,-0.65 -3.9,-0.97 -6.05,1.59 -3.48,1.54 -2.51,-0.12 -1.37,-1.12 -3.78,-0.92 -1.14,-0.17 -1.28,-0.08 -1.19,-0.41 -1.62,-1.27 -2.07,-1.78 -0.97,-1.37 -0.28,-3.72 0.99,-0.49 0.63,-0.93 -0.51,-2.37 -0.11,-0.23 0.66,-1.34 2.34,-1.72 1.03,-0.58 2.24,-2.67 -1.33,-2.25 -1.85,-0.87 -1.76,1.03 -7.7,1.45 -7.39,0.07 -6.19,-2.91 -1.14,-2.33 -1.21,-2.72 -3.12,-3.87 -2.62,-0.02 -0.88,-1.17 1.92,-1.65 2.16,-1.34 3.04,-1.8 1.3,-0.82 5.37,-3.61 0.83,-1.19 1.97,-0.35 1.93,-0.51 1.04,-0.46 3.08,-4.22 -0.1,-1.27 -0.31,-1.74 0.29,-3.26 2.06,-3.47 1.69,-0.44 1.64,-0.01 1.8,-0.32 -0.27,-3.03 -0.66,-0.96 -0.6,-1.35 1.35,-1.78 3.39,-1.21 1.15,0.68 2.04,0 4.87,-4.28 4.53,-1.77 1.92,-0.32 2.56,-1.25 1.53,-1.5 0.1,-1.01 -0.27,-1.42 0.83,-0.89 3.77,-0.21 2.05,1.06 2.74,-0.37 1.15,-0.98 3.43,-0.49 1.81,0.76 1.09,0.89 0.25,1.38 6.26,-1.23 4.88,-1.04 2.18,0.93 1.95,-1.69 2.21,-2.15 2.57,-0.74 2,0.17 2.94,0.2 2.03,-0.65 0.71,-1.34 0.51,-0.66 5.73,-5.05 0.9,-0.45 7.15,-0.83 5.42,0 3.36,1.65 0.59,0.79 0.09,1.07 0.74,0.63 2,-1.48 1.37,-1.49 0.96,-1.19 0.77,-0.55 3,-1.12 z"
       inkscape:connector-curvature="0"
       style="fill:#cccccc;fill-opacity:1;stroke:#ffffff;stroke-width:0.5;stroke-opacity:1" />
    <path
       id="CO-GUV"
       title="Guaviar"
       class="land"
       d="m 476.67,434.77 -1.04,-0.04 -7.48,2.87 -12.49,3.43 -2.17,0.21 -2.31,-0.04 -4.67,-0.38 -5.39,4.19 -0.89,0.43 -1.87,-0.07 -1.25,0.26 -4.03,2.49 -2.78,3.73 -5.08,5.72 -2.85,1.97 -0.69,1.18 -2.49,6.2 0.07,1.07 0.17,1.14 -0.02,2.2 -3.08,4.22 -2.62,2.55 -1,0.12 -1.36,0.32 -1.31,1.01 -0.55,0.83 -0.36,1.25 -0.25,1.12 -3.59,3.38 -5.29,5.05 -0.73,0.81 -0.07,0.12 -0.72,0.02 -1.94,-1.51 -3.87,-1.35 -0.92,0.41 -0.88,0.27 -1.83,-3.54 -1.05,-2.77 -4.99,-6.62 -2.52,-2.45 -1.57,0.3 -0.84,-0.24 -3.44,-2.26 -0.87,-1.41 -2.7,-0.68 -3.57,0.68 -1.88,0.9 -1.5,2.22 0.16,0.97 0.47,0.9 -0.51,0.84 -6.35,4.77 -0.98,0.22 -1.49,-0.11 -3.16,-1.33 -0.77,-1.31 -3.67,-3.11 -1.25,-0.85 -1.08,-0.69 -1.43,-1.01 -0.82,-0.79 -0.79,-0.84 -0.67,-1.21 -0.06,-1.34 -0.26,-1.21 -1.48,-3.15 -1.48,-1.68 -1.75,-1.48 -3.2,-3.95 -0.78,-1.26 -0.37,-2.15 0.06,-1.51 0.06,-0.36 -0.01,-1.21 0.12,-9.84 0.02,-1.32 0.46,-14.08 1.1,-3.68 8.97,1.14 3.08,-0.36 6.05,-1.34 7.68,-2.61 1.64,-2 1.27,-2.82 0.67,-0.61 1.48,-0.66 1.21,-0.31 1.72,0.99 7.84,-1.91 1.23,-1.83 1.91,-1.75 7.01,-3.58 11.04,-1.01 3.54,0.71 8.19,-1.25 2.63,-0.75 5.58,0.31 7.51,-0.11 4.97,-1.12 4.58,-0.03 2,0 2,0.2 0.54,0.38 0.3,2.14 3.72,-0.67 4.55,1.35 2.35,1.27 4.2,0.21 1.13,-1.01 0.42,-1.77 0.63,-0.99 2.67,0.99 2.1,0.94 1.07,0.33 0.69,-0.32 -0.83,1.19 -5.37,3.61 -1.3,0.82 -3.04,1.8 -2.16,1.34 -1.92,1.65 0.88,1.17 2.62,0.02 3.12,3.87 1.21,2.72 1.14,2.33 6.19,2.91 7.39,-0.07 7.7,-1.45 1.76,-1.03 1.85,0.87 1.33,2.25 -2.24,2.67 -1.03,0.58 -2.34,1.72 z"
       inkscape:connector-curvature="0"
       style="fill:#cccccc;fill-opacity:1;stroke:#ffffff;stroke-width:0.5;stroke-opacity:1" />
    <path
       id="CO-HUI"
       title="Huila"
       class="land"
       d="m 229.45,456.45 -1.99,0.46 -1.03,0.05 -0.85,-0.3 -4.32,-2.7 -3.02,-2.86 -0.44,-0.97 0.18,-1.45 0.15,-1.51 -0.23,-1.26 -1.8,-2.54 -1.9,-0.83 -1.38,0.05 -0.93,-0.04 -0.81,-0.94 -0.58,-6.4 0.04,-2.09 1.2,-0.85 1.79,-0.4 1.34,0.29 1.37,0.62 1.23,0.67 1.68,0.57 1.64,0.1 1.12,-0.3 0.62,-0.54 0,-1.22 -0.34,-1.37 -0.45,-0.92 -0.4,-0.95 -0.75,-2.27 0.12,-0.82 4.02,-4.54 0.95,-0.52 0.89,0.08 2.02,0.55 1.21,-0.17 1.04,-0.44 0.77,-0.68 1.23,-1.68 0.84,-1.16 1.33,-0.8 1.8,0.58 1.8,1.16 1.98,1.64 0.8,0.22 3.09,-0.8 -0.15,-0.87 -0.45,-1.24 -1.73,-4.39 -0.61,-1.07 -1.1,-1.72 -2.07,-4.51 -2.59,-7.63 -0.56,-0.79 0.24,0.06 0.82,0.02 1.04,-0.07 2.48,-0.61 1.61,-0.64 2.62,-1.88 0.98,-1 2.23,-2.17 1.1,-0.44 1.61,-0.05 1.36,-0.06 1.23,-0.16 0.81,-0.33 0.22,-0.9 -0.14,-1.36 2.2,-3.76 0.62,-0.79 6.16,-2.58 1.13,-0.36 11.21,-1.69 1.19,0.35 0.45,0.89 -0.23,1.67 -0.57,0.8 -0.83,0.67 -0.51,1.19 0.89,1.01 1.81,0.46 1.24,-0.05 1.15,-0.27 2.75,-2 3.53,-4.24 -0.07,-1.23 -0.36,-0.99 0.29,-0.85 2.24,-3.72 1.6,-2.32 2.99,-3.8 1.02,-1.25 1.25,-1.04 0.98,-0.74 0.32,-0.17 0.05,0.26 0.6,0.76 1.63,0.9 0.14,0.95 -0.45,1.23 -0.11,0.22 -1.62,4.08 -0.46,0.93 -0.62,0.81 -1.03,1.21 -0.49,0.93 -0.7,2.43 -0.68,2.72 0.23,0.87 0.14,0.98 0.11,2.33 -2.28,3.96 -0.73,1 -0.91,1.07 -1.11,0.84 -0.71,0.45 -1.06,0.59 -1.7,1.15 -2.25,1.65 -1.06,0.92 -1.07,2.76 -0.25,0.31 -3.11,3.89 -0.53,1.17 0.1,1.54 0.79,1.2 0.5,0.89 0.24,1.31 -1.86,2.32 -4.37,3.57 -1.21,0.31 -0.82,-0.33 -1.48,-0.39 -1.33,1.24 -0.53,0.81 -0.35,1.38 -0.42,2.29 -1.71,3.19 -1.82,1.56 -6.57,7.74 -0.77,2.36 -3.46,4.63 -4.3,5.05 -7.85,10.15 -1.33,0.95 -1.35,0 -1.65,0.12 -4.31,0.34 z"
       inkscape:connector-curvature="0"
       style="fill:#cccccc;fill-opacity:1;stroke:#ffffff;stroke-width:0.5;stroke-opacity:1" />
    <path
       id="CO-LAG"
       title="La Guajira"
       class="land"
       d="m 363.15,90.42 -0.48,-0.12 -2.11,-0.2 -1.27,0.11 -1.62,0.35 -0.91,0.25 -1.44,0.26 -1.41,0.08 -2.28,-1.55 2.27,-2.87 1.3,-0.57 0.5,-1.07 0.46,-2.82 -0.61,-1.58 -6.88,-7.39 -1.43,-0.88 -1.24,-0.21 -1.92,0.09 -3.28,0.02 -3.66,-0.06 -1.05,-0.1 -1.19,-0.32 -0.71,-0.73 -0.71,-1.12 -0.67,-2.57 0.78,-5.6 1.23,-1.8 0.76,-0.69 0.66,-1.07 0.73,-1.27 0.28,-0.87 -0.01,-0.92 1.17,0.07 5.13,-0.17 1.63,-0.24 1.15,-0.26 1.34,-0.41 0.7,-0.45 2.52,-1.78 0.43,-1.15 2.18,-2 4.46,-3.27 10.96,-7.74 1.56,-0.79 8.79,-3.38 1.25,0.14 1.23,-0.03 1.7,-0.54 5.63,-3.26 0.87,-0.56 1.07,-1.09 3.87,-8.01 -0.01,-0.86 -0.28,-3.36 -0.95,-0.6 0.45,-0.82 0.79,-0.35 4.54,-0.35 2.63,0.25 -0.73,1.1 -1.21,1.38 1.06,1.49 0.95,0.15 1.04,-0.39 3.03,-2.01 2.25,-4.3 4.81,-2.22 2.54,-2.31 -0.98,-0.73 -2.03,0.18 -1.33,0.86 0.51,-1.13 1.38,-0.77 1.2,-0.19 4.04,0.43 1.44,0.32 10.43,4.19 1.34,1.02 0.92,0.83 4.37,8.52 0.16,0.97 -0.14,1.11 -0.7,1.32 -1.75,1.38 -2.4,1.38 -2.08,1.38 -1.53,2.23 -0.21,0.51 -3.24,1.68 -2.67,0.72 -6.53,1.68 -3.92,1.4 -1.98,0.89 -8.19,1.44 -4.3,7.14 -5.63,10.25 -4.47,3.57 -1.32,0.05 -5.04,1.2 -0.79,0.49 -2.01,3.79 -3.86,5.66 -2.93,5.24 -4.34,7.5 -1.1,1.51 -2.75,4.58 z"
       inkscape:connector-curvature="0"
       style="fill:#cccccc;fill-opacity:1;stroke:#ffffff;stroke-width:0.5;stroke-opacity:1" />
    <path
       id="CO-MAG"
       title="Magdalena"
       class="land"
       d="m 323.31,150.65 -2.1,-0.03 -3.31,-0.67 -5.8,-1.9 -2.25,-2.23 -1.06,-1.72 -3.11,-2.78 -1.76,-1.1 -3.81,-1.7 -1.38,0.01 -4.13,-1.69 -2.81,-3.04 -2.61,-1.77 -0.91,0.13 -0.86,0.1 -2.45,-1.07 0.06,-1.97 0.46,-2.84 -1.01,-4.38 -0.4,-0.74 -1.94,-6.36 -0.11,-0.9 -0.12,-2.57 0.39,-1.09 1.23,-0.55 1.31,-0.79 0.29,-1.61 -2.2,-3.08 -1.52,-0.43 -1.92,-0.9 -0.41,-1.3 1.37,-4.52 1.73,-4.21 2.24,-5.11 0.74,-0.95 0.89,-0.84 1.9,-1.26 0.38,-1.8 0.22,-4.29 0.07,-2.72 -0.11,-5.72 -2.21,-4.07 -0.53,-0.89 -0.97,-0.92 -1.32,-0.84 -0.81,-2.01 0.03,-0.24 1.08,0.83 13.59,4.68 1.19,0.26 1.04,0.14 1.12,0.03 1.81,0 1.57,-0.15 1.06,-0.21 0.98,-0.3 -0.52,0.65 -0.93,0.35 -1.13,0.16 -2.65,0.22 -1.91,-0.23 -5.21,3.91 -0.65,2.25 0.59,1.68 3.05,-1.23 2.22,1.95 0.31,0.98 2.59,0.02 0.81,-0.56 0.7,-1.16 1.08,-3.35 1.72,-4.33 1.11,-2.06 1.39,-4.24 -0.37,-3.26 0.07,-1.6 0.89,-1.43 1.09,-1.69 1.4,-0.91 4.86,-1.04 1,0.05 1.78,0.68 0.76,0.83 3.47,1.43 3.14,0.8 4.88,0.02 1.69,-0.25 1.51,-0.08 1.55,-0.03 0.82,0.1 0.01,0.92 -0.28,0.87 -0.73,1.27 -0.66,1.07 -0.76,0.69 -1.23,1.8 -0.78,5.6 0.67,2.57 -0.77,1.03 -0.28,0.92 0.19,1.26 0.56,0.83 1.58,1.72 1.48,1.72 -0.83,1.98 -0.57,0.95 -0.11,0.87 0.03,0.84 0.31,1.13 1.55,1.53 0.5,1.44 -8.12,3.9 -5.51,2.08 -0.84,0.28 -2.24,1.23 -3.89,6.68 -0.38,1.09 -1,3.83 4.74,6.28 4.91,6.87 2.25,6.41 -5.47,0.32 -4.39,-0.24 -1.16,0.64 -2.61,3.54 0.87,0.78 1.33,0.54 1.22,1.09 0.54,0.8 1.94,3.03 0.83,1.39 0.35,1.23 2.16,4.68 1.21,1.07 1.25,1.31 0.86,1.37 -0.86,1.54 -1.41,2.03 z"
       inkscape:connector-curvature="0"
       style="fill:#cccccc;fill-opacity:1;stroke:#ffffff;stroke-width:0.5;stroke-opacity:1" />
    <path
       id="CO-MET"
       title="Meta"
       class="land"
       d="m 438.41,318.82 -0.08,0.37 0.02,21.15 0.02,9.15 0.04,10.54 0.03,25.31 0.03,10.52 0.02,5.6 0.05,0.53 -0.54,-0.38 -2,-0.2 -2,0 -4.58,0.03 -4.97,1.12 -7.51,0.11 -5.58,-0.31 -2.63,0.75 -8.19,1.25 -3.54,-0.71 -11.04,1.01 -7.01,3.58 -1.91,1.75 -1.23,1.83 -7.84,1.91 -1.72,-0.99 -1.21,0.31 -1.48,0.66 -0.67,0.61 -1.27,2.82 -1.64,2 -7.68,2.61 -6.05,1.34 -3.08,0.36 -8.97,-1.14 -1.1,3.68 -0.46,14.08 -0.02,1.32 -0.12,9.84 0.01,1.21 -1.36,-0.48 -1.1,-0.08 -1.33,0.19 -3.09,0.9 -1.44,0.46 -1.91,0.73 -1.1,0.19 -2.04,0.24 -1.31,-0.24 -5.07,-3.66 -1.01,-1.61 -2.63,-2.59 -2.52,-0.62 -1.3,-0.21 -1.06,-0.09 -0.99,-0.12 -1.28,-0.25 -1.76,-0.37 -1.91,-0.78 -1.24,-0.84 -1.25,-1.46 -1.35,-1.68 -1.42,-2.54 -0.27,-1.17 -0.06,-0.84 0.02,-1.69 0.04,-1.34 -0.4,-2.8 -0.31,-1.07 -0.7,-1.59 -0.85,-2.44 -0.2,-1.04 -0.62,-8.03 0.34,-1.14 1.25,-1.78 0.58,-0.58 0.95,-1.12 0.52,-1.1 0.3,-1.08 0.09,-0.97 -0.11,-0.87 -0.49,-1.15 -0.5,-0.67 -0.87,-0.84 -0.85,-0.62 -4.06,-2.83 -0.86,-0.46 -0.87,-0.36 -1.66,-0.48 -3.71,-0.92 1.07,-2.76 1.06,-0.92 2.25,-1.65 1.7,-1.15 1.06,-0.59 0.71,-0.45 1.11,-0.84 0.91,-1.07 0.73,-1 2.28,-3.96 -0.11,-2.33 -0.14,-0.98 -0.23,-0.87 0.68,-2.72 0.7,-2.43 0.49,-0.93 1.03,-1.21 0.62,-0.81 0.46,-0.93 1.62,-4.08 0.11,0.86 0.77,0.42 0.83,-0.17 0.68,-0.75 0.86,-1.9 0.59,-1.49 0.75,-1.3 5.88,-6.41 1.04,-0.78 1.23,-0.26 1.5,0.07 1.06,-0.08 0.98,-0.35 1.77,-1.12 0.89,-0.7 0.86,-0.87 0.78,-0.61 6.67,-3.4 1.73,-0.06 0.93,0.01 1.1,-0.56 0,-2.06 -0.17,-0.92 -1.77,-3.71 -1.21,-0.3 -0.73,-0.97 0.6,-1.5 1.47,-2.25 1.3,-0.99 5.22,1.33 1.13,0.58 0.8,0.64 0.52,1.44 0.23,1.44 0.2,0.94 0.82,2.28 0.92,0.77 2.06,0.45 0.89,-0.19 1.03,-0.68 2.1,-0.53 6.72,1.69 3.28,-1.71 2.18,-11.92 0.72,-3.86 0.31,-0.9 1.37,1.73 1.24,1.73 0.43,1.11 0.46,1.49 2.02,2.77 7.1,7.7 0.81,0.73 5.33,-0.47 4.27,-0.47 3.8,-0.55 1.5,-0.91 0.68,-0.62 1.17,-1.54 3.45,-1.3 3.75,-0.44 1.27,0.42 0.86,0.84 0.9,0.99 1.19,0.1 2.6,-1.19 3.56,-2.78 0.88,-0.97 4.36,-2.78 3.61,-1.22 1.2,-0.49 0.8,-0.47 2.77,-2.05 8.14,-3.7 0.98,-0.42 2.57,-0.94 1.15,-0.1 1.58,-0.52 1.53,-0.87 3.31,-2.04 z"
       inkscape:connector-curvature="0"
       style="fill:#cccccc;fill-opacity:1;stroke:#ffffff;stroke-width:0.5;stroke-opacity:1" />
    <path
       id="CO-NAR"
       title="Nariño"
       class="land"
       d="m 201.67,466.01 -0.8,0.12 -1.22,0.27 -0.9,0.36 -3.75,2.2 -0.9,0.53 -1.29,0.81 -1.17,0.84 -0.46,0.71 0.23,7.78 0.22,1.07 0.44,1.07 1.27,3.91 1.35,5.89 -0.07,0.97 -1.45,0.8 -1.23,0.4 -1.16,0.25 -0.64,3.1 0.5,1.49 0.39,1.52 0.26,2.3 0.07,1.35 -0.09,1.2 -4.62,1.01 -1.12,-0.05 -3.82,-1.1 -2.79,-0.89 -1.76,-1.15 -1.2,-5.26 0.2,-1.8 0.11,-1.5 -0.84,-1.38 -1.22,-0.4 -0.83,0.28 -0.92,0.11 -1.21,-0.75 -0.61,-0.5 -1.84,-1.01 -0.92,-0.74 -0.51,-0.89 -0.1,-1.26 0.22,-1.15 -0.91,-1.14 -0.84,-0.33 -3.35,0.71 -1.41,0.8 -1.64,-0.22 -1.21,-0.49 -1.91,-2.02 -2.87,-1.19 -1.35,0.16 -1.56,-0.16 -1.24,-0.47 -3.1,-2.24 -2.26,-1.94 -0.76,-0.48 -1.45,-0.37 -1.09,-0.2 -0.91,-0.36 -0.89,-0.65 -3.62,-3.51 -0.59,-0.83 -0.44,-0.73 -3.03,-0.69 -0.83,0.44 -1.29,-1.82 -1.66,-0.78 -1.02,-0.4 -0.86,-0.56 -5.45,-6.23 -2.02,-4.51 -2.87,-1.34 -0.84,-0.16 -1.52,-0.04 -1.87,-0.55 -0.8,-1.35 3.22,-4.94 3.77,-3 1.47,-0.45 3.45,0.64 1.19,0.62 4.59,1.68 1.39,-0.1 1.56,-4.71 0.15,-1.43 -2.07,-4.13 -0.96,-0.49 -1.43,-1.39 -1.09,-3.72 -0.26,-1.59 1.83,-3.93 2.47,-4.59 0.71,-1.14 0.35,1.58 0.65,-1.3 0.75,-0.48 2.37,-0.37 0.4,-2.5 1.14,-0.17 1.6,1.22 0.85,0.84 0.91,0.83 3.36,-3.33 4.97,1.16 0.9,0.14 5.59,-1.44 1.51,-1.45 0.38,-2.17 0.1,0.75 0.42,0.98 0.51,0.89 1.1,1.41 2.39,3.56 1.42,2.53 1.58,3.45 0.52,0.88 1.69,1.42 1.09,0.59 0.85,0.27 1.18,0.27 2.21,0.3 0.85,0 1.92,-0.05 4.38,-0.5 0.76,0.4 0.66,0.93 1.81,3.05 3.37,4.11 1.75,1.55 1.08,0.98 -0.36,1 -0.94,1.41 -0.93,0.47 -1.24,1.26 -0.47,0.72 -0.4,5.5 1.26,0.16 1.57,-0.01 5.71,-0.42 0.92,-0.19 1.59,-0.58 0.83,-0.1 7.79,4.81 0.86,1.22 0.1,1.1 -0.89,7.16 -1.12,1.97 z m -53.53,-48.7 -0.35,-0.07 -3.33,-3.08 -0.03,-0.56 0.11,-0.66 0.33,-0.6 0.57,-0.75 1.24,-0.31 0.48,-0.08 0.68,0.1 1.13,2.05 0.17,0.39 0.39,2.05 -0.13,0.43 -0.99,0.97 -0.27,0.12 z"
       inkscape:connector-curvature="0"
       style="fill:#cccccc;fill-opacity:1;stroke:#ffffff;stroke-width:0.5;stroke-opacity:1" />
    <path
       id="CO-NSA"
       title="Norte de Santander"
       class="land"
       d="m 398.38,229.82 -0.8,0.65 -0.8,0.37 -1.15,-0.03 -1.37,-0.37 -1.07,-0.1 -0.85,0.31 -4.14,2.36 -0.66,1.37 -0.59,1.12 -1.21,1.07 -0.98,0.32 -2.74,0.09 -2.52,0 -0.55,0.2 -0.85,0 -0.55,-0.65 0.16,-1.62 -0.05,-1.52 -0.67,-0.63 -2.98,0.83 -0.91,0.62 -8.25,-3.49 -0.24,-6.64 0.4,-4.76 0,-0.95 -0.16,-0.98 -1.1,-2.96 -0.55,-1.09 -3.49,-6.04 -1.01,-0.28 -7.78,-0.03 -0.84,0.45 -0.49,0.8 -0.87,1.45 -2.72,0.23 -5.7,-1.74 -0.81,-0.26 -0.93,-0.78 -0.52,-1.45 -1.63,-1.63 -1.48,-0.72 4.49,-0.55 1.16,-0.29 1.77,-0.93 1.08,-1.01 1,-1.57 2.51,-5.23 0.24,-1.41 -0.97,-3.93 -0.43,-1.17 -0.95,-2 -1.55,-2.15 -0.6,-1.47 0,-0.98 0.64,-0.73 0.92,-0.12 1.17,-0.72 0.34,-1.69 0.11,-1.93 -0.03,-1.35 -0.19,-0.92 -0.44,-0.76 -0.93,-0.43 -1.44,0.11 -0.54,0.75 0.15,1.34 0.06,0.9 -0.05,1.14 -1.16,0.96 -1.15,-0.35 -0.47,-1.03 -1.74,-6.83 0.33,-2.99 0.31,-1.05 0.57,-0.99 1.38,-1.34 0.65,-0.83 0.59,-1.51 -0.09,-2.44 -0.36,-2.1 0.15,-3.12 0.98,-6.7 0.19,-0.82 0.51,-1.29 0.41,-0.84 0.25,-0.39 1.34,0.21 5.1,-0.2 2.32,-1.02 0.91,-1.17 5.5,-3.24 1.19,1.71 0.94,2.48 -0.17,0.95 3.17,2.44 4.36,1.62 1.76,6.76 2.99,11.44 9.95,10.4 0.73,0.16 0.15,0.07 0.56,0.61 0.5,1.35 1.62,7.65 0.48,2.6 -0.15,1.13 -0.71,0.58 -1.79,0.01 -2.9,5.25 -0.57,10.92 0.05,6.54 2.19,3.19 0.72,0.55 0.16,0.04 3.05,0.55 2.53,0.15 4.44,2.65 -0.38,1.48 -0.03,1.11 0.8,2.63 0.51,1.05 0.8,1.44 0.86,1.43 1.09,1.7 z"
       inkscape:connector-curvature="0"
       style="fill:#cccccc;fill-opacity:1;stroke:#ffffff;stroke-width:0.5;stroke-opacity:1" />
    <path
       id="CO-PUT"
       title="Putumayo"
       class="land"
       d="m 233.01,477.05 0.58,-0.23 4.85,0.35 0.99,1.25 -0.14,1.45 0.47,0.84 2.77,3.05 3.76,1.36 2.83,-0.42 1.75,-0.64 3.81,2.14 0.54,1.32 0.94,0.95 3.44,0.92 2.21,-0.15 0.81,-0.17 1.17,-0.36 1.65,0.4 1.17,0.9 1.63,4.4 -0.38,1.42 0.15,1.26 1.27,2.62 1.16,0.26 1.25,-0.71 1.15,-0.75 3.91,1.81 0.65,0.63 0.52,1.08 -0.11,0.82 -0.55,1.11 1.04,4.75 4.34,1.82 1.25,0.29 4.43,0.63 0.81,0.61 0.66,1.05 1.56,4.51 -0.63,0.67 -0.9,0.73 0.9,3.22 3.24,1.94 4.88,0.91 0.79,-0.73 -0.15,-0.83 0.67,-0.6 4.36,1.33 1.86,1.44 0.79,1.09 3.57,2.03 3.07,0.85 1.43,1.5 1.98,1.97 2.75,1.49 1.48,0.52 3.51,0.85 -2.87,0.86 -5.06,1.68 -6.54,2.22 -5.34,1.93 -0.82,0.27 -1.41,0.35 -0.24,-0.39 -0.73,-1.01 -6.72,-5.14 -2.09,-1.4 -1.04,0.94 -3.13,-1.84 -0.29,-1.15 -0.05,-0.9 -0.17,-0.9 -0.51,-1.17 -0.65,-1.04 -0.95,-1.14 -0.81,-0.31 -0.85,0.22 -1.18,0.81 -0.78,0.29 -3.21,-1.37 -0.93,-1.16 -2.5,-1.95 -4.77,-3.18 -2.8,-0.35 -0.48,1.29 -0.38,1.13 -1.37,1.09 -1.1,-0.12 -0.59,-0.71 -1.05,-0.57 -1,-0.41 -2.03,-0.26 -1.46,-0.51 -3.48,-2.11 -2.33,-1.63 -4.89,-0.46 -1.38,0.31 -1.37,-0.46 -6.26,-4.77 -2.78,-3.81 -1.84,-2.61 -0.63,-0.72 -4.33,-1.36 -4.03,-1.01 -6.51,0.13 -0.28,4.94 -1.69,1.01 -3.97,1.14 -0.89,-0.06 -0.75,-0.42 -1.12,-1.14 -4.31,-1 -0.43,0.82 -1.78,0.58 -1.7,0.31 -2.27,0.08 -6.95,-2.73 -1.83,-2.19 0.09,-1.19 -0.07,-1.35 -0.26,-2.3 -0.39,-1.52 -0.5,-1.49 0.63,-3.1 1.16,-0.25 1.22,-0.4 1.46,-0.8 0.07,-0.96 -1.35,-5.9 -1.27,-3.91 -0.43,-1.07 -0.22,-1.07 -0.24,-7.78 0.47,-0.7 1.17,-0.84 1.29,-0.81 0.91,-0.53 3.75,-2.2 0.91,-0.36 1.22,-0.28 0.8,-0.12 2.88,-0.56 1.19,-0.29 1.49,-1.18 1.1,-1.8 1.2,-0.72 1.78,0.16 1.11,1 1.58,3.09 0.45,1.15 0.04,0.83 -0.45,0.89 -0.41,0.72 -0.26,0.81 -0.51,3.99 1.08,2.24 1.01,1.11 4.65,1.93 0.92,0.3 1.36,0.19 5.26,0.04 1.15,-0.25 4.27,-1.57 z"
       inkscape:connector-curvature="0"
       style="fill:#cccccc;fill-opacity:1;stroke:#ffffff;stroke-width:0.5;stroke-opacity:1" />
    <path
       id="CO-QUI"
       title="Quindío"
       class="land"
       d="m 247.91,327.38 0.6,-0.28 4.3,0.31 2.69,0.41 1.23,0.33 1.13,-0.04 2.6,-1.49 0.29,0.55 -3.27,4.79 -2.84,3.41 -1.24,1.59 -0.47,0.92 0.09,1.94 -0.1,1.64 -0.31,0.84 -0.35,0.79 -0.39,0.73 -0.51,0.65 -1.03,1.2 -2.49,3.73 -0.42,2.12 0.05,1.1 -0.92,-0.65 -0.75,-1.33 -0.62,-2.08 -0.76,-2.69 -2.88,-12.71 -0.29,-1.41 0.1,-0.95 0.66,-0.59 2.07,0.18 1.98,-0.04 1.86,-0.38 0.48,-0.8 z"
       inkscape:connector-curvature="0"
       style="fill:#cccccc;fill-opacity:1;stroke:#ffffff;stroke-width:0.5;stroke-opacity:1" />
    <path
       id="CO-RIS"
       title="Risaralda"
       class="land"
       d="m 260.46,326.62 -2.6,1.49 -1.13,0.04 -1.23,-0.33 -2.69,-0.41 -4.3,-0.31 -0.6,0.28 -2.48,-1.15 -5.39,-1.35 -3.17,-4.57 -3.27,-3.18 -1.47,-1.22 -0.87,-0.31 -1.78,0.31 -0.67,-0.26 -0.92,-0.48 -0.81,-0.52 -0.73,-0.77 -0.46,-0.74 -3.91,-8.54 -0.26,-1.25 3.46,-3.61 0.76,-0.5 6.78,-3.22 1.36,-0.51 0.99,-0.37 0.79,-0.25 0.59,0.34 3.51,-0.08 0.84,-0.11 -0.26,4.6 0.7,0.9 1.09,-0.35 1.59,-0.79 2.81,-0.64 3.47,2.47 -0.97,1.89 -1.44,1.67 -4.08,2.31 -4.5,4.18 -0.6,1.41 1.64,4.43 0.89,0.73 1.46,-0.01 4.6,-1.08 4.29,1.56 3.19,0.17 0.85,0.05 1.68,1.04 3.31,2.86 -1.6,2.1 0.17,0.81 z"
       inkscape:connector-curvature="0"
       style="fill:#cccccc;fill-opacity:1;stroke:#ffffff;stroke-width:0.5;stroke-opacity:1" />
    <path
       id="CO-SAN"
       title="Santander"
       class="land"
       d="m 321.13,220.32 0.74,-6.38 1.7,-3.89 1.71,-2.71 0.78,-6.67 -0.64,-3.23 -0.74,-1.55 -1.21,-4.04 -0.03,-1.26 -0.02,-1.39 0.21,-0.93 0.63,-1.51 1.57,-1.44 1.1,-0.66 0.55,0.99 1.61,3.08 0.81,1.79 1.41,4.01 -0.31,1.69 -0.81,1.31 -0.96,1.44 -0.38,1.49 0.54,1.09 2.53,0.17 1.75,0.14 1.06,0.96 0.2,0.52 1.48,0.72 1.63,1.63 0.52,1.45 0.93,0.78 0.81,0.26 5.7,1.74 2.72,-0.23 0.87,-1.45 0.49,-0.8 0.84,-0.45 7.78,0.03 1.01,0.28 3.49,6.04 0.55,1.09 1.1,2.96 0.16,0.98 0,0.95 -0.4,4.76 0.24,6.64 8.25,3.49 0.91,-0.62 2.98,-0.83 0.67,0.63 0.05,1.52 -0.16,1.62 0.55,0.65 0.85,0 0.55,-0.2 0.31,0.68 0.41,1.28 0.47,6.04 -0.07,1.21 -0.25,1.09 -1.91,5.51 -0.47,0.95 -0.67,0.8 -0.79,0.47 -0.96,0.21 -2.16,0.07 -0.76,-2.73 -0.53,-1.18 -2.37,-1.47 -1.21,0.19 -0.03,4.14 0.29,1.44 0.65,1.03 0.64,1.19 0.11,2.08 -0.62,1.72 -1.1,2.02 -7.64,9.45 -3.01,2.97 -2.59,-0.41 -1.12,-0.22 -1.17,0.13 -0.88,0.23 -1.12,0.55 -0.66,0.73 -0.17,1.22 0.51,1.43 -0.17,0.99 -0.7,0.75 -2.3,1.08 -1.24,0.14 -1.38,-0.39 -0.89,-0.69 -0.62,-1.19 -0.27,-1.69 0.16,-1.02 1.1,-2.07 0.31,-1.12 0.1,-0.9 -0.08,-1.12 -0.4,-0.95 -0.79,-0.74 -4.82,-2.54 -1.27,1.71 -2.44,5.91 -0.79,4.74 -0.17,0.86 -0.69,2.38 -1,0.67 -1.25,-0.83 -1.31,-1.04 -5.41,0.62 -4.91,1.21 -0.81,-0.67 -0.77,-2.03 -0.69,-0.67 -4.47,-2.5 -3.72,-3.45 -1.9,-4.05 -1.05,-0.38 -1.08,0.33 -0.75,0.41 -0.78,0.34 -1.17,-0.34 -1.42,-1.3 -1.59,-2.38 -2.17,-3.51 -1.39,-1.63 1.64,-0.7 0.97,-0.72 3.89,-4.33 0.35,-0.86 -1.05,-1.73 -0.33,-3.53 0.39,-1.41 1.49,-1.85 1.3,-0.04 2.71,-1.26 4.87,-3.79 1.27,-1.01 0.64,-0.63 0.78,-1.36 1.08,-1.8 2.12,-2.27 1.4,-0.75 1.87,-0.84 1.86,-1.7 0.07,-1.05 -0.46,-1.64 -0.77,-0.93 -0.53,-1.04 -0.49,-4.36 -0.01,-0.85 0.21,-1.22 z"
       inkscape:connector-curvature="0"
       style="fill:#cccccc;fill-opacity:1;stroke:#ffffff;stroke-width:0.5;stroke-opacity:1" />
    <path
       id="CO-SUC"
       title="Sucre"
       class="land"
       d="m 247.07,132.21 1.54,0.41 1.28,-0.6 0.92,-0.93 0.59,-0.99 0.91,-2.1 0.29,-1.01 0.22,-1.5 0.02,-0.96 -0.26,-1.18 -0.41,-1.28 -1.05,-1.39 -1.4,-2.55 1.06,-2.67 1.61,-5.52 0.24,-0.92 0.42,-2.75 0,-1.09 -0.1,-0.7 0.7,-0.32 1.73,-0.41 2.01,4.63 3.77,4.67 1.82,0.78 0.39,1.08 0.14,2.98 -0.08,0.87 3.14,2.26 10.64,8.77 0.75,0.84 1.02,1.23 0.67,0.97 0.16,0.94 0.04,1.15 -0.33,2.23 -0.11,0.98 0.17,1.16 0.67,1.61 1.4,2.76 1.69,2.07 2.42,1.54 0.85,0.31 0.79,0.33 1.07,0.61 2.37,1.66 1.19,1.09 1.33,2.11 2.21,4.96 -1.52,1.33 -0.01,7.48 0.36,1.6 0.62,1.9 0.59,0.98 -1.11,3.01 -1.69,3.39 -0.91,1.1 -1.99,0.26 -1.53,0.27 -1.15,0.41 -0.36,0.27 -0.93,-1.25 -0.28,-1.55 -0.18,-1.58 -2.98,-2.66 -5.83,-2.44 -1.12,1.22 -0.81,0.8 -2.35,1.62 -3.1,0.83 -0.24,-1.71 -0.16,-2.23 -1.01,-0.59 -0.89,0.13 -1.64,0.55 -1.2,-0.35 -1.18,-7.04 -2.4,-6.25 0.06,-1.16 3.17,-1.2 1.77,-0.25 1.34,-0.13 1.25,0.5 0.54,-2.53 -0.05,-1.04 -1.56,-4.25 -2.43,-2.09 -0.81,-0.45 -0.85,-0.35 -3.13,-0.77 -0.78,-0.66 -3.83,-3.99 -5.31,-3.48 -0.77,-0.65 -0.75,-0.82 -0.68,-0.9 z"
       inkscape:connector-curvature="0"
       style="fill:#cccccc;fill-opacity:1;stroke:#ffffff;stroke-width:0.5;stroke-opacity:1" />
    <path
       id="CO-TOL"
       title="Tolima"
       class="land"
       d="m 247.47,352.62 -0.05,-1.1 0.42,-2.12 2.49,-3.73 1.03,-1.2 0.51,-0.65 0.39,-0.73 0.35,-0.79 0.31,-0.84 0.1,-1.64 -0.09,-1.94 0.47,-0.92 1.24,-1.59 2.84,-3.41 3.27,-4.79 -0.29,-0.55 -1.37,-1.27 -0.17,-0.81 1.6,-2.1 2.21,-1.73 0.65,-0.77 0.02,-0.91 -0.74,-0.97 -0.51,-1.14 1.76,-6.43 0.29,-0.84 1.15,-1.29 1.33,-0.2 1.4,0 3.71,-0.38 0.7,-0.45 0.51,-1.19 0.41,-0.72 0.98,-1 1.26,-1 1.1,-0.59 2.91,-0.7 0.93,-0.19 2.49,0 1.72,0.11 1.61,0.41 0.9,0.32 0.17,0.45 0.58,6.74 -1.81,11.55 -2.2,4.78 0.42,4.47 0.17,1.32 0.27,1.5 0.51,1.15 -0.72,2.2 -2.89,5.47 -0.67,1.82 0.82,0.65 8.01,3.09 1.01,0.11 1.17,-0.53 0.98,-1.57 1.46,-0.49 1.15,0.34 0.98,1.13 1.36,2.05 0.42,0.96 0.04,1.24 -1.37,2.79 -0.15,4.73 -0.11,1.25 -1.03,2.57 -0.32,0.17 -0.98,0.74 -1.25,1.04 -1.02,1.25 -2.99,3.8 -1.6,2.32 -2.24,3.72 -0.29,0.85 0.36,0.99 0.07,1.23 -3.53,4.24 -2.75,2 -1.15,0.27 -1.24,0.05 -1.81,-0.46 -0.89,-1.01 0.51,-1.19 0.83,-0.67 0.57,-0.8 0.23,-1.67 -0.45,-0.89 -1.19,-0.35 -11.21,1.69 -1.13,0.36 -6.16,2.58 -0.62,0.79 -2.2,3.76 0.14,1.36 -0.22,0.9 -0.81,0.33 -1.23,0.16 -1.36,0.06 -1.61,0.05 -1.1,0.44 -2.23,2.17 -0.98,1 -2.62,1.88 -1.61,0.64 -2.48,0.61 -1.04,0.07 -0.82,-0.02 -0.24,-0.06 -0.6,-1.3 -1.22,-2.14 -1.15,-1.65 -0.47,-0.81 0.08,-1 0.19,-1.37 -0.06,-0.7 0.5,-0.4 3.17,-10.68 2.26,-8.81 0.92,-5.04 0.31,-0.86 1.12,-1.99 1.13,-1.68 0.93,-1.04 0.83,-0.18 0.77,0.35 0.78,0.31 2.53,-2.03 0.23,-1.2 0.08,-1.63 z"
       inkscape:connector-curvature="0"
       style="fill:#cccccc;fill-opacity:1;stroke:#ffffff;stroke-width:0.5;stroke-opacity:1" />
    <path
       id="CO-VAC"
       title="Valle del Cauca"
       class="land"
       d="m 231.99,387.98 -1.75,-0.23 -1.47,-0.53 -1.75,-0.77 -1.27,-0.72 -1.04,-0.64 -1.5,-0.79 -3.5,-0.65 -1.95,0.23 -0.93,1.6 0.69,0.92 0.1,1.63 -0.94,1.75 -5.01,2.22 -1.85,0.21 -3.7,2.22 -5.5,2.78 -2.44,-2.73 -2.41,-1.15 -0.93,1.32 -7.38,-0.68 -6.53,-4.76 -1.83,-2.64 -1.4,-1.59 -0.96,-0.53 -1.5,-1.19 0.74,-1.12 3.55,-2.26 4.94,-6.31 1.34,-0.36 2.91,-3.72 0.52,-1.77 0.11,-2.45 3.83,-6.14 -2.07,0.48 -1.22,0.5 -1.94,1.31 -1.19,0.78 -2,0.19 -1.17,-0.05 -0.88,-0.48 -0.45,-2.63 0.49,-1.43 1.06,-0.65 1.88,-0.22 1.12,-3.62 -0.96,-0.69 -2.06,-0.76 -1.41,1.32 -0.73,0.92 -0.68,2.24 -0.63,1.45 -0.9,1.03 -2.32,-2.98 -0.49,-1.35 -0.11,-4.54 0.47,-1.5 3.64,-1.58 2.52,0.09 1.15,-1.25 0.92,1.72 0.75,0.61 1.58,-0.39 0.95,-0.04 1.33,0.54 4.12,3.53 5.7,1.9 2.94,1.82 0.91,0.37 1.14,0.07 1.11,-0.15 6.39,-2.03 4.61,-3.69 0.55,-1.47 -1.84,-1.83 -1.01,-1.2 -0.34,-0.78 -0.25,-0.81 -0.26,-1.15 -0.17,-1.83 0.08,-0.9 0.22,-0.96 0.52,-0.77 3.09,-5.73 3.01,-6.85 0.45,-0.98 0.58,-0.67 4.62,-3.79 0.85,-0.5 0.96,-0.42 0.78,-0.56 0.54,-1.2 0.26,-1.02 0.09,-0.64 1.78,-0.31 0.87,0.31 1.47,1.22 3.27,3.18 3.17,4.57 5.39,1.35 2.48,1.15 0.49,1.79 -0.48,0.8 -1.86,0.38 -1.98,0.04 -2.07,-0.18 -0.66,0.59 -0.1,0.95 0.29,1.41 2.88,12.71 0.76,2.69 0.62,2.08 0.75,1.33 0.92,0.65 0.08,0.48 -0.08,1.63 -0.23,1.2 -2.53,2.03 -0.78,-0.31 -0.77,-0.35 -0.83,0.18 -0.93,1.04 -1.13,1.68 -1.12,1.99 -0.31,0.86 -0.92,5.04 -2.26,8.81 -3.17,10.68 z"
       inkscape:connector-curvature="0"
       style="fill:#cccccc;fill-opacity:1;stroke:#ffffff;stroke-width:0.5;stroke-opacity:1" />
    <path
       id="CO-VID"
       title="Vichada"
       class="land"
       d="m 438.41,318.82 0.7,-0.44 0.91,-0.77 0.75,-0.97 4.5,-7.6 1.72,-0.83 1.18,-0.7 6.52,-6 0.08,-0.85 0,-0.84 0.43,-1.06 1.15,-0.76 0.87,-0.55 7.47,-4.44 3.85,-1.51 1.11,-0.13 2.03,0.06 0.95,-0.17 2.48,-0.6 1.06,-0.34 2.93,-1.87 1.07,-1.2 4.26,-5.6 1.01,-2.72 0.56,-1.74 1.01,-2.14 0.62,-0.94 1.35,-1.63 0.5,-0.35 0.52,-0.33 1.38,-0.59 1.25,-0.22 2.56,0.26 2.36,0.26 2.41,-0.03 1.64,-0.13 2.18,-0.76 1.13,-0.57 1.63,-1.32 1.04,-0.5 1.35,-0.62 2.28,-0.11 0.63,1.06 1.24,1.31 1.19,0.28 1.92,-0.67 1.73,-1.67 1.55,-1.57 1.14,-0.99 1.3,-0.53 1.26,0.05 8.16,1.17 3.06,0.7 1.71,0.51 1.07,0.64 1.97,0.25 3.64,-1.2 3.01,-0.9 0.95,-0.17 1.43,-0.05 1.85,0.5 2.26,0.48 1,-0.32 2.7,-0.95 1.47,-0.5 1.6,-0.49 0.95,-0.03 1.18,0.08 1.54,0.34 1.27,0.32 1.54,-0.07 1.67,-0.43 1.62,-0.84 3.59,-2.86 5.68,0.6 2.39,0.32 2.95,0.94 1.2,0.8 1.58,1.55 0.97,0.45 0.75,0.06 -1.43,1.61 -0.14,1.34 0.29,0.97 0.66,1.16 1.42,1.27 0.87,1.78 -0.51,0.77 -1.46,0.88 -0.71,0.57 -2.18,2.07 -2.69,2.74 -0.94,1.34 -0.95,2.5 -0.36,1.98 0.12,1.28 0.27,1.64 0.35,1.4 0.74,1.24 -1.38,2.87 -1.61,1.22 -2.44,1.5 -0.89,0.22 -1.43,0.97 -1.84,3.15 0.78,7.2 0.38,1.57 0.73,2.21 0.05,2.72 -0.5,5.84 -0.13,1.22 -0.33,2.66 -1.4,7.21 3.05,9.3 -0.68,1.42 -0.18,1.12 -0.03,1.69 0.81,2.68 2.37,3.24 0.85,1.66 -0.92,0.29 -3,1.12 -0.77,0.55 -0.96,1.19 -1.37,1.49 -2,1.48 -0.74,-0.63 -0.09,-1.07 -0.59,-0.79 -3.36,-1.65 -5.42,0 -7.15,0.83 -0.9,0.45 -5.73,5.05 -0.51,0.66 -0.71,1.34 -2.03,0.65 -2.94,-0.2 -2,-0.17 -2.57,0.74 -2.21,2.15 -1.95,1.69 -2.18,-0.93 -4.88,1.04 -6.26,1.23 -0.25,-1.38 -1.09,-0.89 -1.81,-0.76 -3.43,0.49 -1.15,0.98 -2.74,0.37 -2.05,-1.06 -3.77,0.21 -0.83,0.89 0.27,1.42 -0.1,1.01 -1.53,1.5 -2.56,1.25 -1.92,0.32 -4.53,1.77 -4.87,4.28 -2.04,0 -1.15,-0.68 -3.39,1.21 -1.35,1.78 0.6,1.35 0.66,0.96 0.27,3.03 -1.8,0.32 -1.64,0.01 -1.69,0.44 -2.06,3.47 -0.29,3.26 0.31,1.74 0.1,1.27 -3.08,4.22 -1.04,0.46 -1.93,0.51 -1.97,0.35 -0.69,0.32 -1.07,-0.33 -2.1,-0.94 -2.67,-0.99 -0.63,0.99 -0.42,1.77 -1.13,1.01 -4.2,-0.21 -2.35,-1.27 -4.55,-1.35 -3.72,0.67 -0.3,-2.14 -0.05,-0.53 -0.02,-5.6 -0.03,-10.52 -0.03,-25.31 -0.04,-10.54 -0.02,-9.15 -0.02,-21.15 z"
       inkscape:connector-curvature="0"
       style="fill:#cccccc;fill-opacity:1;stroke:#ffffff;stroke-width:0.5;stroke-opacity:1" />
    <path
       id="CO-VAU"
       title="Vaupés"
       class="land"
       d="m 506.02,561.33 -1.01,2.19 0.14,3.16 -6.72,0.9 -0.78,-3.54 0.06,-0.91 -3.25,-2.81 -4.23,1.02 -2.85,1.32 -0.82,0.3 -1.36,-0.23 -0.29,-0.84 1.12,-3.18 -0.2,-1.52 -5.83,0.39 -1.36,0.88 -0.65,0.88 -0.06,0.84 0.59,0.66 1.19,0.3 0.6,0.61 -0.32,0.95 -0.69,0.77 -0.84,0.36 -1.15,-0.09 -5.07,-4.02 -0.51,-0.86 -0.32,-0.98 0.27,-0.89 1.42,-0.83 1.08,-0.84 -0.34,-1.76 -0.95,-0.98 -1.04,-0.9 -0.06,-1.57 1.33,-2.12 -0.06,-4.82 1.5,-5.54 -0.71,-0.92 -2.02,-1.06 -2.46,1.85 0.72,1.21 -1.46,0.33 -2.75,-0.9 -1.32,-1.24 -0.6,-0.94 -1.61,-1.66 -10.41,-3.36 -0.7,1.33 -3.01,1.22 -1.62,-2.64 -1.69,-7.58 -1.04,-1.96 -2.08,-2.2 -1.58,0.65 -4.11,-1.3 -8.52,-5.18 -0.98,-0.75 -1.89,-0.93 -3.04,-0.14 -0.76,0.62 -0.39,0.42 -0.91,0.25 -3.81,-2.1 -3.27,-2.07 -3,-2.73 -2.59,-0.66 -1.44,-4.41 -2.74,-4.78 -2.77,-3.2 -0.8,-0.69 0.07,-0.12 0.73,-0.81 5.29,-5.05 3.59,-3.38 0.25,-1.12 0.36,-1.25 0.55,-0.83 1.31,-1.01 1.36,-0.32 1,-0.12 2.62,-2.55 3.08,-4.22 0.02,-2.2 -0.17,-1.14 -0.07,-1.07 2.49,-6.2 0.69,-1.18 2.85,-1.97 5.08,-5.72 2.78,-3.73 4.03,-2.49 1.25,-0.26 1.87,0.07 0.89,-0.43 5.39,-4.19 4.67,0.38 2.31,0.04 2.17,-0.21 12.49,-3.43 7.48,-2.87 1.04,0.04 0.11,0.23 0.51,2.37 -0.63,0.93 -0.99,0.49 0.28,3.72 0.97,1.37 2.07,1.78 1.62,1.27 1.19,0.41 1.28,0.08 1.14,0.17 3.78,0.92 1.37,1.12 0.15,0.51 0,25.63 5.11,-0.01 4.32,-0.23 7.35,1.62 2.41,-0.74 1.58,-0.67 3.03,1.6 1.52,1.42 3.61,5.55 -0.78,4.53 1.3,4.46 -3.38,1.13 -3.2,-0.27 -1.71,-1.37 -5.37,-3.28 -9.24,2.43 -2.74,1.77 -1.89,1.33 -5.22,0.15 -2.52,0 -2.52,0.52 -0.07,3.02 -0.08,5.85 -0.05,2.52 -0.12,6.68 -0.13,5.88 -0.08,3.61 -0.02,2.84 1.5,1.89 3.63,4.12 8,6.2 0.92,0.21 1.18,0.24 2.39,1.12 0.99,1.06 1.36,4.71 -0.38,1.35 -0.56,1.33 -0.78,0.98 0.11,1.29 3.91,7.27 1.52,0.88 1.92,1.89 z"
       inkscape:connector-curvature="0"
       style="fill:#cccccc;fill-opacity:1;stroke:#ffffff;stroke-width:0.5;stroke-opacity:1" />
    <g
       id="g4222">
      <path
         inkscape:connector-curvature="0"
         style="fill:#cccccc;fill-opacity:1"
         d="m 165.56316,63.763721 c 1.05228,-1.337757 2.7727,-4.637796 6.23052,-11.951122 2.198,-4.648805 2.40029,-5.385363 2.69502,-9.812796 0.34528,-5.186633 1.63468,-8.930875 3.88618,-11.28485 1.59255,-1.665035 2.11753,-3.760704 2.11753,-8.452848 l 0,-3.94781 1.66943,-1.081418 c 1.92612,-1.247685 1.8784,-0.862009 0.99041,-8.005591 -0.47484,-3.819896 -0.91004,-5.654741 -1.43169,-6.036181 -0.41221,-0.301415 -0.74947,-0.776829 -0.74947,-1.056474 0,-0.666581 2.99646,-1.645932 3.93455,-1.28595 0.50954,0.195528 0.8004,-0.08838 0.96324,-0.940253 0.20737,-1.084788 -0.065,-1.367052 -2.45192,-2.540796 -1.48597,-0.730718 -2.75433,-1.69455 -2.83997,-2.158112 -0.19684,-1.065353 0.81754,-1.076794 3.00455,-0.03389 2.18031,1.039721 2.53729,0.611337 1.23989,-1.487897 -1.03349,-1.672201 -0.98445,-2.666601 0.13148,-2.666601 0.31604,0 0.8364,-0.419179 1.15636,-0.931512 0.70177,-1.123719 3.39132,-1.934227 6.43049,-1.937855 3.73244,-0.0045 5.12363,-1.060675 2.23324,-1.695511 -0.83359,-0.183088 -1.95123,-0.73871 -2.48363,-1.234716 -0.5324,-0.496005 -1.54137,-0.901828 -2.24216,-0.901828 -0.86429,0 -1.64366,-0.482475 -2.42277,-1.499827 -0.63174,-0.824905 -1.48515,-1.888276 -1.89647,-2.363046 -0.41133,-0.474771 -1.16251,-1.41537 -1.6693,-2.090221 -0.50679,-0.67485 -1.24727,-1.217247 -1.64551,-1.205325 -0.39823,0.01192 -2.98319,2.16595 -5.74435,4.78673 -2.76116,2.620779 -5.26737,4.765054 -5.56936,4.765054 -0.99252,0 -2.09519,2.321473 -2.09519,4.411062 0,4.113544 -1.22425,8.268037 -3.2342,10.975292 -1.04693,1.410137 -2.36304,2.97422 -2.9247,3.47575 -1.26313,1.127907 -1.35903,3.909495 -0.24728,7.172312 0.74109,2.174989 0.73402,2.308477 -0.16687,3.147782 -0.5737,0.534477 -1.04856,1.786441 -1.21699,3.208533 -0.15191,1.282629 -0.61219,3.297095 -1.02284,4.476584 -0.81783,2.348982 -0.99957,4.502766 -0.34588,4.098761 0.22809,-0.140964 0.78067,0.148097 1.22798,0.642356 0.4473,0.494263 1.5531,1.037452 2.45733,1.207089 0.90424,0.169632 1.64407,0.52823 1.64407,0.796875 0,0.882774 -0.97934,2.340209 -1.57253,2.340209 -0.40012,0 -0.6101,1.194451 -0.67317,3.829383 -0.0504,2.106162 -0.15025,4.421742 -0.22184,5.145735 -0.0716,0.723993 0.0117,2.624688 0.18511,4.223767 l 0.31526,2.907422 -2.12795,2.59412 c -1.26711,1.544687 -2.23538,3.273168 -2.39351,4.272676 -0.14606,0.923207 -0.34641,2.075349 -0.44523,2.560316 -0.0988,0.484963 0.55996,2.227338 1.46395,3.871943 1.53955,2.800869 1.74756,2.986575 3.28544,2.933169 1.13202,-0.0393 1.93089,-0.424496 2.57275,-1.24049 z"
         id="path2232" />
      <path
         inkscape:connector-curvature="0"
         style="fill:#cccccc;fill-opacity:1"
         d="m 215.64226,25.042956 c 0.52537,-0.58053 2.07462,-1.143057 4.18851,-1.52083 2.98254,-0.533008 3.51527,-0.799289 4.80167,-2.400048 1.57324,-1.957681 4.28979,-3.291028 6.72867,-3.302588 1.8397,-0.0087 2.22464,-0.245257 3.59533,-2.209243 0.80563,-1.15432 1.18128,-2.77369 1.63532,-7.049537 l 0.58944,-5.550979 1.81201,-0.725022 c 0.9966,-0.398763 1.812,-1.048126 1.812,-1.443031 0,-0.629159 -0.23904,-0.622361 -1.93171,0.05491 -1.80851,0.72362 -1.99169,0.718641 -2.87204,-0.07806 -1.26468,-1.144521 -1.18363,-1.874096 0.28238,-2.54206 1.15248,-0.525104 1.17998,-0.61811 0.47868,-1.61936 -0.99474,-1.420189 -1.01253,-6.253269 -0.026,-7.071991 0.95236,-0.790395 0.91034,-1.436019 -0.0935,-1.436019 -1.06694,0 -3.49657,-2.349785 -3.49657,-3.381655 0,-0.44505 -0.32311,-1.077333 -0.71801,-1.405075 -0.58746,-0.487546 -0.71801,-0.456344 -0.71801,0.171606 0,0.422125 -0.52838,0.900115 -1.17418,1.062199 -1.04888,0.263255 -1.18934,0.582322 -1.31635,2.990316 l -0.14217,2.695614 -2.8321,1.871453 -2.8321,1.871449 -1.59919,-0.861219 c -1.57317,-0.847213 -1.63661,-0.842445 -3.90006,0.293087 -1.97722,0.991939 -2.51162,1.591975 -3.79906,4.265684 -2.01593,4.186594 -2.8347,6.861759 -3.14984,10.29147 -0.14514,1.579621 -0.36841,3.342803 -0.49614,3.918182 -0.12906,0.581382 0.0719,1.298559 0.45235,1.614301 0.37651,0.312482 0.68457,0.870261 0.68457,1.239509 0,0.369244 0.43081,1.897077 0.95735,3.395175 1.15726,3.292612 1.16668,3.475011 0.1795,3.475011 -0.62114,0 -0.71627,0.313401 -0.47222,1.555687 0.27307,1.390018 1.37425,2.75237 2.22471,2.75237 0.17215,0 0.68819,-0.414589 1.14677,-0.921302 z"
         id="path2206" />
      <path
         inkscape:connector-curvature="0"
         style="fill:#cccccc;fill-opacity:1"
         d="m 226.90573,-18.16465 c 0.66974,-0.718877 0.80626,-1.153664 0.43442,-1.383475 -0.39433,-0.24371 -0.33715,-0.937081 0.2096,-2.541707 0.73436,-2.155215 0.72876,-2.206572 -0.24057,-2.206572 -2.47369,0 -4.79595,1.139628 -5.5517,2.724433 -0.73879,1.549258 -0.72487,1.617137 0.61942,3.02027 1.62784,1.699101 3.18268,1.831982 4.52883,0.387051 z"
         id="path2189" />
      <rect
         style="opacity:1;fill:none;fill-opacity:1;stroke:#152c3c;stroke-width:1.20000005;stroke-linecap:round;stroke-linejoin:miter;stroke-miterlimit:4;stroke-dasharray:none;stroke-dashoffset:0;stroke-opacity:1"
         id="rect3418"
         width="48.613594"
         height="99.878838"
         x="150.61374"
         y="-29.393566" />
      <rect
         y="-29.393566"
         x="204.00728"
         height="63.979218"
         width="45.417664"
         id="rect4220"
         style="opacity:1;fill:none;fill-opacity:1;stroke:#152c3c;stroke-width:1.2;stroke-linecap:round;stroke-linejoin:miter;stroke-miterlimit:4;stroke-dasharray:none;stroke-dashoffset:0;stroke-opacity:1" />
    </g>
  </g>
</svg>
